<mxfile host="app.diagrams.net" agent="Mozilla/5.0 (Macintosh; Intel Mac OS X 10_15_7) AppleWebKit/537.36 (KHTML, like Gecko) Chrome/134.0.0.0 Safari/537.36 Edg/134.0.0.0" version="26.1.1">
  <diagram name="第 1 页" id="CsmVNthw5Pach-uJiGhg">
    <mxGraphModel dx="3021" dy="1175" grid="1" gridSize="10" guides="1" tooltips="1" connect="1" arrows="1" fold="1" page="1" pageScale="1" pageWidth="827" pageHeight="1169" math="0" shadow="0">
      <root>
        <mxCell id="0" />
        <mxCell id="1" parent="0" />
        <mxCell id="d3hysCNAhfZ4Tvbttm1y-117" value="" style="rounded=0;whiteSpace=wrap;html=1;" vertex="1" parent="1">
          <mxGeometry x="163" y="30" width="793" height="1080" as="geometry" />
        </mxCell>
        <mxCell id="d3hysCNAhfZ4Tvbttm1y-116" value="" style="rounded=0;whiteSpace=wrap;html=1;" vertex="1" parent="1">
          <mxGeometry x="-700" y="30" width="793" height="1080" as="geometry" />
        </mxCell>
        <mxCell id="d3hysCNAhfZ4Tvbttm1y-2" value="" style="rounded=1;whiteSpace=wrap;html=1;fillColor=#dae8fc;strokeColor=#6c8ebf;" vertex="1" parent="1">
          <mxGeometry x="-650" y="810" width="1533" height="100" as="geometry" />
        </mxCell>
        <mxCell id="d3hysCNAhfZ4Tvbttm1y-1" value="" style="rounded=1;whiteSpace=wrap;html=1;fillColor=#d5e8d4;strokeColor=#82b366;" vertex="1" parent="1">
          <mxGeometry x="-670" y="630" width="1553" height="170" as="geometry" />
        </mxCell>
        <mxCell id="d3hysCNAhfZ4Tvbttm1y-3" value="" style="rounded=1;whiteSpace=wrap;html=1;fillColor=#e1d5e7;strokeColor=#9673a6;" vertex="1" parent="1">
          <mxGeometry x="-670" y="360" width="1553" height="260" as="geometry" />
        </mxCell>
        <mxCell id="Z5-1r_VYY9yfkDdFCzC5-3" style="edgeStyle=orthogonalEdgeStyle;rounded=0;orthogonalLoop=1;jettySize=auto;html=1;entryX=0.5;entryY=0;entryDx=0;entryDy=0;" parent="1" source="Z5-1r_VYY9yfkDdFCzC5-2" target="Z5-1r_VYY9yfkDdFCzC5-4" edge="1">
          <mxGeometry relative="1" as="geometry">
            <mxPoint x="513" y="210" as="targetPoint" />
          </mxGeometry>
        </mxCell>
        <mxCell id="Z5-1r_VYY9yfkDdFCzC5-2" value="Kafka" style="shape=cylinder3;whiteSpace=wrap;html=1;boundedLbl=1;backgroundOutline=1;size=15;rotation=0;" parent="1" vertex="1">
          <mxGeometry x="493" y="100" width="40" height="70" as="geometry" />
        </mxCell>
        <mxCell id="Z5-1r_VYY9yfkDdFCzC5-9" style="edgeStyle=orthogonalEdgeStyle;rounded=0;orthogonalLoop=1;jettySize=auto;html=1;entryX=0.5;entryY=0;entryDx=0;entryDy=0;" parent="1" source="Z5-1r_VYY9yfkDdFCzC5-4" target="Z5-1r_VYY9yfkDdFCzC5-10" edge="1">
          <mxGeometry relative="1" as="geometry">
            <mxPoint x="513" y="300" as="targetPoint" />
          </mxGeometry>
        </mxCell>
        <mxCell id="Z5-1r_VYY9yfkDdFCzC5-4" value="关联信息" style="rounded=1;whiteSpace=wrap;html=1;" parent="1" vertex="1">
          <mxGeometry x="468" y="210" width="90" height="40" as="geometry" />
        </mxCell>
        <mxCell id="Z5-1r_VYY9yfkDdFCzC5-6" style="edgeStyle=orthogonalEdgeStyle;rounded=0;orthogonalLoop=1;jettySize=auto;html=1;entryX=1;entryY=0.5;entryDx=0;entryDy=0;" parent="1" source="Z5-1r_VYY9yfkDdFCzC5-5" target="Z5-1r_VYY9yfkDdFCzC5-4" edge="1">
          <mxGeometry relative="1" as="geometry" />
        </mxCell>
        <mxCell id="Z5-1r_VYY9yfkDdFCzC5-5" value="Redis" style="shape=cylinder3;whiteSpace=wrap;html=1;boundedLbl=1;backgroundOutline=1;size=15;rotation=0;" parent="1" vertex="1">
          <mxGeometry x="613" y="195" width="40" height="70" as="geometry" />
        </mxCell>
        <mxCell id="Z5-1r_VYY9yfkDdFCzC5-49" style="edgeStyle=orthogonalEdgeStyle;rounded=0;orthogonalLoop=1;jettySize=auto;html=1;entryX=0.5;entryY=0;entryDx=0;entryDy=0;" parent="1" source="Z5-1r_VYY9yfkDdFCzC5-10" target="Z5-1r_VYY9yfkDdFCzC5-14" edge="1">
          <mxGeometry relative="1" as="geometry" />
        </mxCell>
        <mxCell id="Z5-1r_VYY9yfkDdFCzC5-50" style="edgeStyle=orthogonalEdgeStyle;rounded=0;orthogonalLoop=1;jettySize=auto;html=1;entryX=0.5;entryY=0;entryDx=0;entryDy=0;" parent="1" source="Z5-1r_VYY9yfkDdFCzC5-10" target="Z5-1r_VYY9yfkDdFCzC5-15" edge="1">
          <mxGeometry relative="1" as="geometry" />
        </mxCell>
        <mxCell id="Z5-1r_VYY9yfkDdFCzC5-51" style="edgeStyle=orthogonalEdgeStyle;rounded=0;orthogonalLoop=1;jettySize=auto;html=1;entryX=0.5;entryY=0;entryDx=0;entryDy=0;" parent="1" source="Z5-1r_VYY9yfkDdFCzC5-10" target="Z5-1r_VYY9yfkDdFCzC5-16" edge="1">
          <mxGeometry relative="1" as="geometry" />
        </mxCell>
        <mxCell id="Z5-1r_VYY9yfkDdFCzC5-52" style="edgeStyle=orthogonalEdgeStyle;rounded=0;orthogonalLoop=1;jettySize=auto;html=1;entryX=0.5;entryY=0;entryDx=0;entryDy=0;" parent="1" source="Z5-1r_VYY9yfkDdFCzC5-10" target="Z5-1r_VYY9yfkDdFCzC5-17" edge="1">
          <mxGeometry relative="1" as="geometry" />
        </mxCell>
        <mxCell id="Z5-1r_VYY9yfkDdFCzC5-53" style="edgeStyle=orthogonalEdgeStyle;rounded=0;orthogonalLoop=1;jettySize=auto;html=1;entryX=0.5;entryY=0;entryDx=0;entryDy=0;" parent="1" source="Z5-1r_VYY9yfkDdFCzC5-10" target="Z5-1r_VYY9yfkDdFCzC5-27" edge="1">
          <mxGeometry relative="1" as="geometry" />
        </mxCell>
        <mxCell id="Z5-1r_VYY9yfkDdFCzC5-10" value="InputStream" style="rounded=1;whiteSpace=wrap;html=1;" parent="1" vertex="1">
          <mxGeometry x="468" y="300" width="90" height="40" as="geometry" />
        </mxCell>
        <mxCell id="Z5-1r_VYY9yfkDdFCzC5-22" value="" style="group" parent="1" vertex="1" connectable="0">
          <mxGeometry x="163" y="411" width="130" height="390" as="geometry" />
        </mxCell>
        <mxCell id="Z5-1r_VYY9yfkDdFCzC5-86" style="edgeStyle=orthogonalEdgeStyle;rounded=0;orthogonalLoop=1;jettySize=auto;html=1;entryX=0.5;entryY=0;entryDx=0;entryDy=0;" parent="Z5-1r_VYY9yfkDdFCzC5-22" source="Z5-1r_VYY9yfkDdFCzC5-14" target="Z5-1r_VYY9yfkDdFCzC5-60" edge="1">
          <mxGeometry relative="1" as="geometry" />
        </mxCell>
        <mxCell id="Z5-1r_VYY9yfkDdFCzC5-14" value="" style="rounded=0;whiteSpace=wrap;html=1;" parent="Z5-1r_VYY9yfkDdFCzC5-22" vertex="1">
          <mxGeometry width="130" height="190" as="geometry" />
        </mxCell>
        <mxCell id="Z5-1r_VYY9yfkDdFCzC5-18" value="Instacne 维度统计" style="text;html=1;align=center;verticalAlign=middle;whiteSpace=wrap;rounded=0;" parent="Z5-1r_VYY9yfkDdFCzC5-22" vertex="1">
          <mxGeometry x="10" y="10" width="99.99999999999999" height="30" as="geometry" />
        </mxCell>
        <mxCell id="Z5-1r_VYY9yfkDdFCzC5-29" value="一分钟滚动区间" style="rounded=0;whiteSpace=wrap;html=1;" parent="Z5-1r_VYY9yfkDdFCzC5-22" vertex="1">
          <mxGeometry x="10" y="50" width="100" height="30" as="geometry" />
        </mxCell>
        <mxCell id="Z5-1r_VYY9yfkDdFCzC5-30" value="五分钟滑动区&lt;span style=&quot;color: rgba(0, 0, 0, 0); font-family: monospace; font-size: 0px; text-align: start; text-wrap-mode: nowrap;&quot;&gt;%3CmxGraphModel%3E%3Croot%3E%3CmxCell%20id%3D%220%22%2F%3E%3CmxCell%20id%3D%221%22%20parent%3D%220%22%2F%3E%3CmxCell%20id%3D%222%22%20value%3D%22%E4%B8%80%E5%88%86%E9%92%9F%E5%8C%BA%E9%97%B4%22%20style%3D%22rounded%3D0%3BwhiteSpace%3Dwrap%3Bhtml%3D1%3B%22%20vertex%3D%221%22%20parent%3D%221%22%3E%3CmxGeometry%20x%3D%2260%22%20y%3D%22460%22%20width%3D%22100%22%20height%3D%2230%22%20as%3D%22geometry%22%2F%3E%3C%2FmxCell%3E%3C%2Froot%3E%3C%2FmxGraphModel%3E&lt;/span&gt;间" style="rounded=0;whiteSpace=wrap;html=1;" parent="Z5-1r_VYY9yfkDdFCzC5-22" vertex="1">
          <mxGeometry x="10" y="90" width="100" height="30" as="geometry" />
        </mxCell>
        <mxCell id="Z5-1r_VYY9yfkDdFCzC5-36" value="一天滚动区&lt;span style=&quot;color: rgba(0, 0, 0, 0); font-family: monospace; font-size: 0px; text-align: start; text-wrap-mode: nowrap;&quot;&gt;%3CmxGraphModel%3E%3Croot%3E%3CmxCell%20id%3D%220%22%2F%3E%3CmxCell%20id%3D%221%22%20parent%3D%220%22%2F%3E%3CmxCell%20id%3D%222%22%20value%3D%22%E4%B8%80%E5%88%86%E9%92%9F%E5%8C%BA%E9%97%B4%22%20style%3D%22rounded%3D0%3BwhiteSpace%3Dwrap%3Bhtml%3D1%3B%22%20vertex%3D%221%22%20parent%3D%221%22%3E%3CmxGeometry%20x%3D%2260%22%20y%3D%22460%22%20width%3D%22100%22%20height%3D%2230%22%20as%3D%22geometry%22%2F%3E%3C%2FmxCell%3E%3C%2Froot%3E%3C%2FmxGraphModel%3E&lt;/span&gt;间" style="rounded=0;whiteSpace=wrap;html=1;" parent="Z5-1r_VYY9yfkDdFCzC5-22" vertex="1">
          <mxGeometry x="10" y="130" width="100" height="30" as="geometry" />
        </mxCell>
        <mxCell id="Z5-1r_VYY9yfkDdFCzC5-69" value="" style="group" parent="Z5-1r_VYY9yfkDdFCzC5-22" vertex="1" connectable="0">
          <mxGeometry x="9.75" y="230" width="110" height="150" as="geometry" />
        </mxCell>
        <mxCell id="Z5-1r_VYY9yfkDdFCzC5-60" value="" style="rounded=0;whiteSpace=wrap;html=1;" parent="Z5-1r_VYY9yfkDdFCzC5-69" vertex="1">
          <mxGeometry width="110" height="150" as="geometry" />
        </mxCell>
        <mxCell id="Z5-1r_VYY9yfkDdFCzC5-56" value="1M Topic" style="ellipse;whiteSpace=wrap;html=1;" parent="Z5-1r_VYY9yfkDdFCzC5-69" vertex="1">
          <mxGeometry x="10" y="20" width="95" height="30" as="geometry" />
        </mxCell>
        <mxCell id="Z5-1r_VYY9yfkDdFCzC5-58" value="5M Topic" style="ellipse;whiteSpace=wrap;html=1;" parent="Z5-1r_VYY9yfkDdFCzC5-69" vertex="1">
          <mxGeometry x="10" y="60" width="95" height="30" as="geometry" />
        </mxCell>
        <mxCell id="Z5-1r_VYY9yfkDdFCzC5-59" value="1D Topic" style="ellipse;whiteSpace=wrap;html=1;" parent="Z5-1r_VYY9yfkDdFCzC5-69" vertex="1">
          <mxGeometry x="7.5" y="100" width="95" height="30" as="geometry" />
        </mxCell>
        <mxCell id="Z5-1r_VYY9yfkDdFCzC5-23" value="" style="group" parent="1" vertex="1" connectable="0">
          <mxGeometry x="313" y="410" width="120" height="310" as="geometry" />
        </mxCell>
        <mxCell id="Z5-1r_VYY9yfkDdFCzC5-15" value="" style="rounded=0;whiteSpace=wrap;html=1;" parent="Z5-1r_VYY9yfkDdFCzC5-23" vertex="1">
          <mxGeometry width="120" height="190" as="geometry" />
        </mxCell>
        <mxCell id="Z5-1r_VYY9yfkDdFCzC5-19" value="Service 维度统计" style="text;html=1;align=center;verticalAlign=middle;whiteSpace=wrap;rounded=0;" parent="Z5-1r_VYY9yfkDdFCzC5-23" vertex="1">
          <mxGeometry x="10" y="10.163934426229508" width="100" height="30.491803278688526" as="geometry" />
        </mxCell>
        <mxCell id="Z5-1r_VYY9yfkDdFCzC5-37" value="一分钟滚动区间" style="rounded=0;whiteSpace=wrap;html=1;" parent="Z5-1r_VYY9yfkDdFCzC5-23" vertex="1">
          <mxGeometry x="10" y="50" width="100" height="30" as="geometry" />
        </mxCell>
        <mxCell id="Z5-1r_VYY9yfkDdFCzC5-38" value="五分钟滑动区&lt;span style=&quot;color: rgba(0, 0, 0, 0); font-family: monospace; font-size: 0px; text-align: start; text-wrap-mode: nowrap;&quot;&gt;%3CmxGraphModel%3E%3Croot%3E%3CmxCell%20id%3D%220%22%2F%3E%3CmxCell%20id%3D%221%22%20parent%3D%220%22%2F%3E%3CmxCell%20id%3D%222%22%20value%3D%22%E4%B8%80%E5%88%86%E9%92%9F%E5%8C%BA%E9%97%B4%22%20style%3D%22rounded%3D0%3BwhiteSpace%3Dwrap%3Bhtml%3D1%3B%22%20vertex%3D%221%22%20parent%3D%221%22%3E%3CmxGeometry%20x%3D%2260%22%20y%3D%22460%22%20width%3D%22100%22%20height%3D%2230%22%20as%3D%22geometry%22%2F%3E%3C%2FmxCell%3E%3C%2Froot%3E%3C%2FmxGraphModel%3E&lt;/span&gt;间" style="rounded=0;whiteSpace=wrap;html=1;" parent="Z5-1r_VYY9yfkDdFCzC5-23" vertex="1">
          <mxGeometry x="10" y="90" width="100" height="30" as="geometry" />
        </mxCell>
        <mxCell id="Z5-1r_VYY9yfkDdFCzC5-39" value="一天滚动区&lt;span style=&quot;color: rgba(0, 0, 0, 0); font-family: monospace; font-size: 0px; text-align: start; text-wrap-mode: nowrap;&quot;&gt;%3CmxGraphModel%3E%3Croot%3E%3CmxCell%20id%3D%220%22%2F%3E%3CmxCell%20id%3D%221%22%20parent%3D%220%22%2F%3E%3CmxCell%20id%3D%222%22%20value%3D%22%E4%B8%80%E5%88%86%E9%92%9F%E5%8C%BA%E9%97%B4%22%20style%3D%22rounded%3D0%3BwhiteSpace%3Dwrap%3Bhtml%3D1%3B%22%20vertex%3D%221%22%20parent%3D%221%22%3E%3CmxGeometry%20x%3D%2260%22%20y%3D%22460%22%20width%3D%22100%22%20height%3D%2230%22%20as%3D%22geometry%22%2F%3E%3C%2FmxCell%3E%3C%2Froot%3E%3C%2FmxGraphModel%3E&lt;/span&gt;间" style="rounded=0;whiteSpace=wrap;html=1;" parent="Z5-1r_VYY9yfkDdFCzC5-23" vertex="1">
          <mxGeometry x="10" y="130" width="100" height="30" as="geometry" />
        </mxCell>
        <mxCell id="Z5-1r_VYY9yfkDdFCzC5-24" value="" style="group" parent="1" vertex="1" connectable="0">
          <mxGeometry x="443" y="411" width="120" height="189" as="geometry" />
        </mxCell>
        <mxCell id="Z5-1r_VYY9yfkDdFCzC5-16" value="" style="rounded=0;whiteSpace=wrap;html=1;" parent="Z5-1r_VYY9yfkDdFCzC5-24" vertex="1">
          <mxGeometry width="120" height="188.99999999999997" as="geometry" />
        </mxCell>
        <mxCell id="Z5-1r_VYY9yfkDdFCzC5-20" value="Room 维度统计" style="text;html=1;align=center;verticalAlign=middle;whiteSpace=wrap;rounded=0;" parent="Z5-1r_VYY9yfkDdFCzC5-24" vertex="1">
          <mxGeometry x="5.950413223140496" y="5.577049180327869" width="99.17355371900827" height="18.59016393442623" as="geometry" />
        </mxCell>
        <mxCell id="Z5-1r_VYY9yfkDdFCzC5-40" value="一分钟滚动区间" style="rounded=0;whiteSpace=wrap;html=1;" parent="Z5-1r_VYY9yfkDdFCzC5-24" vertex="1">
          <mxGeometry x="10" y="49" width="100" height="30" as="geometry" />
        </mxCell>
        <mxCell id="Z5-1r_VYY9yfkDdFCzC5-41" value="五分钟滑动区&lt;span style=&quot;color: rgba(0, 0, 0, 0); font-family: monospace; font-size: 0px; text-align: start; text-wrap-mode: nowrap;&quot;&gt;%3CmxGraphModel%3E%3Croot%3E%3CmxCell%20id%3D%220%22%2F%3E%3CmxCell%20id%3D%221%22%20parent%3D%220%22%2F%3E%3CmxCell%20id%3D%222%22%20value%3D%22%E4%B8%80%E5%88%86%E9%92%9F%E5%8C%BA%E9%97%B4%22%20style%3D%22rounded%3D0%3BwhiteSpace%3Dwrap%3Bhtml%3D1%3B%22%20vertex%3D%221%22%20parent%3D%221%22%3E%3CmxGeometry%20x%3D%2260%22%20y%3D%22460%22%20width%3D%22100%22%20height%3D%2230%22%20as%3D%22geometry%22%2F%3E%3C%2FmxCell%3E%3C%2Froot%3E%3C%2FmxGraphModel%3E&lt;/span&gt;间" style="rounded=0;whiteSpace=wrap;html=1;" parent="Z5-1r_VYY9yfkDdFCzC5-24" vertex="1">
          <mxGeometry x="10" y="89" width="100" height="30" as="geometry" />
        </mxCell>
        <mxCell id="Z5-1r_VYY9yfkDdFCzC5-42" value="一天滚动区&lt;span style=&quot;color: rgba(0, 0, 0, 0); font-family: monospace; font-size: 0px; text-align: start; text-wrap-mode: nowrap;&quot;&gt;%3CmxGraphModel%3E%3Croot%3E%3CmxCell%20id%3D%220%22%2F%3E%3CmxCell%20id%3D%221%22%20parent%3D%220%22%2F%3E%3CmxCell%20id%3D%222%22%20value%3D%22%E4%B8%80%E5%88%86%E9%92%9F%E5%8C%BA%E9%97%B4%22%20style%3D%22rounded%3D0%3BwhiteSpace%3Dwrap%3Bhtml%3D1%3B%22%20vertex%3D%221%22%20parent%3D%221%22%3E%3CmxGeometry%20x%3D%2260%22%20y%3D%22460%22%20width%3D%22100%22%20height%3D%2230%22%20as%3D%22geometry%22%2F%3E%3C%2FmxCell%3E%3C%2Froot%3E%3C%2FmxGraphModel%3E&lt;/span&gt;间" style="rounded=0;whiteSpace=wrap;html=1;" parent="Z5-1r_VYY9yfkDdFCzC5-24" vertex="1">
          <mxGeometry x="10" y="129" width="100" height="30" as="geometry" />
        </mxCell>
        <mxCell id="Z5-1r_VYY9yfkDdFCzC5-25" value="" style="group" parent="1" vertex="1" connectable="0">
          <mxGeometry x="575" y="412.5" width="120" height="187.5" as="geometry" />
        </mxCell>
        <mxCell id="Z5-1r_VYY9yfkDdFCzC5-17" value="" style="rounded=0;whiteSpace=wrap;html=1;" parent="Z5-1r_VYY9yfkDdFCzC5-25" vertex="1">
          <mxGeometry width="120" height="187.5" as="geometry" />
        </mxCell>
        <mxCell id="Z5-1r_VYY9yfkDdFCzC5-21" value="Project 维度统计" style="text;html=1;align=center;verticalAlign=middle;whiteSpace=wrap;rounded=0;" parent="Z5-1r_VYY9yfkDdFCzC5-25" vertex="1">
          <mxGeometry x="11.803278688524589" y="5.532786885245902" width="98.36065573770492" height="18.442622950819672" as="geometry" />
        </mxCell>
        <mxCell id="Z5-1r_VYY9yfkDdFCzC5-43" value="一分钟滚动区间" style="rounded=0;whiteSpace=wrap;html=1;" parent="Z5-1r_VYY9yfkDdFCzC5-25" vertex="1">
          <mxGeometry x="10" y="47.5" width="100" height="30" as="geometry" />
        </mxCell>
        <mxCell id="Z5-1r_VYY9yfkDdFCzC5-44" value="五分钟滑动区&lt;span style=&quot;color: rgba(0, 0, 0, 0); font-family: monospace; font-size: 0px; text-align: start; text-wrap-mode: nowrap;&quot;&gt;%3CmxGraphModel%3E%3Croot%3E%3CmxCell%20id%3D%220%22%2F%3E%3CmxCell%20id%3D%221%22%20parent%3D%220%22%2F%3E%3CmxCell%20id%3D%222%22%20value%3D%22%E4%B8%80%E5%88%86%E9%92%9F%E5%8C%BA%E9%97%B4%22%20style%3D%22rounded%3D0%3BwhiteSpace%3Dwrap%3Bhtml%3D1%3B%22%20vertex%3D%221%22%20parent%3D%221%22%3E%3CmxGeometry%20x%3D%2260%22%20y%3D%22460%22%20width%3D%22100%22%20height%3D%2230%22%20as%3D%22geometry%22%2F%3E%3C%2FmxCell%3E%3C%2Froot%3E%3C%2FmxGraphModel%3E&lt;/span&gt;间" style="rounded=0;whiteSpace=wrap;html=1;" parent="Z5-1r_VYY9yfkDdFCzC5-25" vertex="1">
          <mxGeometry x="10" y="87.5" width="100" height="30" as="geometry" />
        </mxCell>
        <mxCell id="Z5-1r_VYY9yfkDdFCzC5-45" value="一天滚动区&lt;span style=&quot;color: rgba(0, 0, 0, 0); font-family: monospace; font-size: 0px; text-align: start; text-wrap-mode: nowrap;&quot;&gt;%3CmxGraphModel%3E%3Croot%3E%3CmxCell%20id%3D%220%22%2F%3E%3CmxCell%20id%3D%221%22%20parent%3D%220%22%2F%3E%3CmxCell%20id%3D%222%22%20value%3D%22%E4%B8%80%E5%88%86%E9%92%9F%E5%8C%BA%E9%97%B4%22%20style%3D%22rounded%3D0%3BwhiteSpace%3Dwrap%3Bhtml%3D1%3B%22%20vertex%3D%221%22%20parent%3D%221%22%3E%3CmxGeometry%20x%3D%2260%22%20y%3D%22460%22%20width%3D%22100%22%20height%3D%2230%22%20as%3D%22geometry%22%2F%3E%3C%2FmxCell%3E%3C%2Froot%3E%3C%2FmxGraphModel%3E&lt;/span&gt;间" style="rounded=0;whiteSpace=wrap;html=1;" parent="Z5-1r_VYY9yfkDdFCzC5-25" vertex="1">
          <mxGeometry x="10" y="127.5" width="100" height="30" as="geometry" />
        </mxCell>
        <mxCell id="Z5-1r_VYY9yfkDdFCzC5-26" value="" style="group" parent="1" vertex="1" connectable="0">
          <mxGeometry x="709" y="417.5" width="120" height="182.5" as="geometry" />
        </mxCell>
        <mxCell id="Z5-1r_VYY9yfkDdFCzC5-27" value="" style="rounded=0;whiteSpace=wrap;html=1;" parent="Z5-1r_VYY9yfkDdFCzC5-26" vertex="1">
          <mxGeometry width="120" height="182.5" as="geometry" />
        </mxCell>
        <mxCell id="Z5-1r_VYY9yfkDdFCzC5-28" value="Host 维度统计" style="text;html=1;align=center;verticalAlign=middle;whiteSpace=wrap;rounded=0;" parent="Z5-1r_VYY9yfkDdFCzC5-26" vertex="1">
          <mxGeometry x="5.950413223140496" y="5.385245901639344" width="99.17355371900827" height="17.950819672131146" as="geometry" />
        </mxCell>
        <mxCell id="Z5-1r_VYY9yfkDdFCzC5-46" value="一分钟滚动区间" style="rounded=0;whiteSpace=wrap;html=1;" parent="Z5-1r_VYY9yfkDdFCzC5-26" vertex="1">
          <mxGeometry x="10" y="36.25" width="100" height="30" as="geometry" />
        </mxCell>
        <mxCell id="Z5-1r_VYY9yfkDdFCzC5-47" value="五分钟滑动区&lt;span style=&quot;color: rgba(0, 0, 0, 0); font-family: monospace; font-size: 0px; text-align: start; text-wrap-mode: nowrap;&quot;&gt;%3CmxGraphModel%3E%3Croot%3E%3CmxCell%20id%3D%220%22%2F%3E%3CmxCell%20id%3D%221%22%20parent%3D%220%22%2F%3E%3CmxCell%20id%3D%222%22%20value%3D%22%E4%B8%80%E5%88%86%E9%92%9F%E5%8C%BA%E9%97%B4%22%20style%3D%22rounded%3D0%3BwhiteSpace%3Dwrap%3Bhtml%3D1%3B%22%20vertex%3D%221%22%20parent%3D%221%22%3E%3CmxGeometry%20x%3D%2260%22%20y%3D%22460%22%20width%3D%22100%22%20height%3D%2230%22%20as%3D%22geometry%22%2F%3E%3C%2FmxCell%3E%3C%2Froot%3E%3C%2FmxGraphModel%3E&lt;/span&gt;间" style="rounded=0;whiteSpace=wrap;html=1;" parent="Z5-1r_VYY9yfkDdFCzC5-26" vertex="1">
          <mxGeometry x="10" y="76.25" width="100" height="30" as="geometry" />
        </mxCell>
        <mxCell id="Z5-1r_VYY9yfkDdFCzC5-48" value="一天滚动区&lt;span style=&quot;color: rgba(0, 0, 0, 0); font-family: monospace; font-size: 0px; text-align: start; text-wrap-mode: nowrap;&quot;&gt;%3CmxGraphModel%3E%3Croot%3E%3CmxCell%20id%3D%220%22%2F%3E%3CmxCell%20id%3D%221%22%20parent%3D%220%22%2F%3E%3CmxCell%20id%3D%222%22%20value%3D%22%E4%B8%80%E5%88%86%E9%92%9F%E5%8C%BA%E9%97%B4%22%20style%3D%22rounded%3D0%3BwhiteSpace%3Dwrap%3Bhtml%3D1%3B%22%20vertex%3D%221%22%20parent%3D%221%22%3E%3CmxGeometry%20x%3D%2260%22%20y%3D%22460%22%20width%3D%22100%22%20height%3D%2230%22%20as%3D%22geometry%22%2F%3E%3C%2FmxCell%3E%3C%2Froot%3E%3C%2FmxGraphModel%3E&lt;/span&gt;间" style="rounded=0;whiteSpace=wrap;html=1;" parent="Z5-1r_VYY9yfkDdFCzC5-26" vertex="1">
          <mxGeometry x="10" y="116.25" width="100" height="30" as="geometry" />
        </mxCell>
        <mxCell id="Z5-1r_VYY9yfkDdFCzC5-70" value="" style="group" parent="1" vertex="1" connectable="0">
          <mxGeometry x="318" y="640" width="110" height="150" as="geometry" />
        </mxCell>
        <mxCell id="Z5-1r_VYY9yfkDdFCzC5-61" value="" style="rounded=0;whiteSpace=wrap;html=1;" parent="Z5-1r_VYY9yfkDdFCzC5-70" vertex="1">
          <mxGeometry width="110" height="150" as="geometry" />
        </mxCell>
        <mxCell id="Z5-1r_VYY9yfkDdFCzC5-62" value="1M Topic" style="ellipse;whiteSpace=wrap;html=1;" parent="Z5-1r_VYY9yfkDdFCzC5-70" vertex="1">
          <mxGeometry x="7.75" y="20" width="95" height="30" as="geometry" />
        </mxCell>
        <mxCell id="Z5-1r_VYY9yfkDdFCzC5-63" value="5M Topic" style="ellipse;whiteSpace=wrap;html=1;" parent="Z5-1r_VYY9yfkDdFCzC5-70" vertex="1">
          <mxGeometry x="7.75" y="60" width="95" height="30" as="geometry" />
        </mxCell>
        <mxCell id="Z5-1r_VYY9yfkDdFCzC5-64" value="1D Topic" style="ellipse;whiteSpace=wrap;html=1;" parent="Z5-1r_VYY9yfkDdFCzC5-70" vertex="1">
          <mxGeometry x="5.25" y="100" width="95" height="30" as="geometry" />
        </mxCell>
        <mxCell id="Z5-1r_VYY9yfkDdFCzC5-71" value="" style="group" parent="1" vertex="1" connectable="0">
          <mxGeometry x="448" y="640" width="110" height="150" as="geometry" />
        </mxCell>
        <mxCell id="Z5-1r_VYY9yfkDdFCzC5-72" value="" style="rounded=0;whiteSpace=wrap;html=1;" parent="Z5-1r_VYY9yfkDdFCzC5-71" vertex="1">
          <mxGeometry width="110" height="150" as="geometry" />
        </mxCell>
        <mxCell id="Z5-1r_VYY9yfkDdFCzC5-73" value="1M Topic" style="ellipse;whiteSpace=wrap;html=1;" parent="Z5-1r_VYY9yfkDdFCzC5-71" vertex="1">
          <mxGeometry x="7.75" y="20" width="95" height="30" as="geometry" />
        </mxCell>
        <mxCell id="Z5-1r_VYY9yfkDdFCzC5-74" value="5M Topic" style="ellipse;whiteSpace=wrap;html=1;" parent="Z5-1r_VYY9yfkDdFCzC5-71" vertex="1">
          <mxGeometry x="7.75" y="60" width="95" height="30" as="geometry" />
        </mxCell>
        <mxCell id="Z5-1r_VYY9yfkDdFCzC5-75" value="1D Topic" style="ellipse;whiteSpace=wrap;html=1;" parent="Z5-1r_VYY9yfkDdFCzC5-71" vertex="1">
          <mxGeometry x="5.25" y="100" width="95" height="30" as="geometry" />
        </mxCell>
        <mxCell id="Z5-1r_VYY9yfkDdFCzC5-76" value="" style="group" parent="1" vertex="1" connectable="0">
          <mxGeometry x="580" y="640" width="110" height="150" as="geometry" />
        </mxCell>
        <mxCell id="Z5-1r_VYY9yfkDdFCzC5-77" value="" style="rounded=0;whiteSpace=wrap;html=1;" parent="Z5-1r_VYY9yfkDdFCzC5-76" vertex="1">
          <mxGeometry width="110" height="150" as="geometry" />
        </mxCell>
        <mxCell id="Z5-1r_VYY9yfkDdFCzC5-78" value="1M Topic" style="ellipse;whiteSpace=wrap;html=1;" parent="Z5-1r_VYY9yfkDdFCzC5-76" vertex="1">
          <mxGeometry x="7.75" y="20" width="95" height="30" as="geometry" />
        </mxCell>
        <mxCell id="Z5-1r_VYY9yfkDdFCzC5-79" value="5M Topic" style="ellipse;whiteSpace=wrap;html=1;" parent="Z5-1r_VYY9yfkDdFCzC5-76" vertex="1">
          <mxGeometry x="7.75" y="60" width="95" height="30" as="geometry" />
        </mxCell>
        <mxCell id="Z5-1r_VYY9yfkDdFCzC5-80" value="1D Topic" style="ellipse;whiteSpace=wrap;html=1;" parent="Z5-1r_VYY9yfkDdFCzC5-76" vertex="1">
          <mxGeometry x="5.25" y="100" width="95" height="30" as="geometry" />
        </mxCell>
        <mxCell id="Z5-1r_VYY9yfkDdFCzC5-81" value="" style="group" parent="1" vertex="1" connectable="0">
          <mxGeometry x="714" y="640" width="110" height="150" as="geometry" />
        </mxCell>
        <mxCell id="Z5-1r_VYY9yfkDdFCzC5-82" value="" style="rounded=0;whiteSpace=wrap;html=1;" parent="Z5-1r_VYY9yfkDdFCzC5-81" vertex="1">
          <mxGeometry width="110" height="150" as="geometry" />
        </mxCell>
        <mxCell id="Z5-1r_VYY9yfkDdFCzC5-83" value="1M Topic" style="ellipse;whiteSpace=wrap;html=1;" parent="Z5-1r_VYY9yfkDdFCzC5-81" vertex="1">
          <mxGeometry x="7.75" y="20" width="95" height="30" as="geometry" />
        </mxCell>
        <mxCell id="Z5-1r_VYY9yfkDdFCzC5-84" value="5M Topic" style="ellipse;whiteSpace=wrap;html=1;" parent="Z5-1r_VYY9yfkDdFCzC5-81" vertex="1">
          <mxGeometry x="7.75" y="60" width="95" height="30" as="geometry" />
        </mxCell>
        <mxCell id="Z5-1r_VYY9yfkDdFCzC5-85" value="1D Topic" style="ellipse;whiteSpace=wrap;html=1;" parent="Z5-1r_VYY9yfkDdFCzC5-81" vertex="1">
          <mxGeometry x="5.25" y="100" width="95" height="30" as="geometry" />
        </mxCell>
        <mxCell id="Z5-1r_VYY9yfkDdFCzC5-87" style="edgeStyle=orthogonalEdgeStyle;rounded=0;orthogonalLoop=1;jettySize=auto;html=1;entryX=0.5;entryY=0;entryDx=0;entryDy=0;" parent="1" source="Z5-1r_VYY9yfkDdFCzC5-15" target="Z5-1r_VYY9yfkDdFCzC5-61" edge="1">
          <mxGeometry relative="1" as="geometry" />
        </mxCell>
        <mxCell id="Z5-1r_VYY9yfkDdFCzC5-88" style="edgeStyle=orthogonalEdgeStyle;rounded=0;orthogonalLoop=1;jettySize=auto;html=1;entryX=0.5;entryY=0;entryDx=0;entryDy=0;" parent="1" source="Z5-1r_VYY9yfkDdFCzC5-16" target="Z5-1r_VYY9yfkDdFCzC5-72" edge="1">
          <mxGeometry relative="1" as="geometry" />
        </mxCell>
        <mxCell id="Z5-1r_VYY9yfkDdFCzC5-89" style="edgeStyle=orthogonalEdgeStyle;rounded=0;orthogonalLoop=1;jettySize=auto;html=1;entryX=0.5;entryY=0;entryDx=0;entryDy=0;" parent="1" source="Z5-1r_VYY9yfkDdFCzC5-17" target="Z5-1r_VYY9yfkDdFCzC5-77" edge="1">
          <mxGeometry relative="1" as="geometry" />
        </mxCell>
        <mxCell id="Z5-1r_VYY9yfkDdFCzC5-90" style="edgeStyle=orthogonalEdgeStyle;rounded=0;orthogonalLoop=1;jettySize=auto;html=1;entryX=0.5;entryY=0;entryDx=0;entryDy=0;" parent="1" source="Z5-1r_VYY9yfkDdFCzC5-27" target="Z5-1r_VYY9yfkDdFCzC5-82" edge="1">
          <mxGeometry relative="1" as="geometry" />
        </mxCell>
        <mxCell id="Z5-1r_VYY9yfkDdFCzC5-95" value="" style="group" parent="1" vertex="1" connectable="0">
          <mxGeometry x="203" y="830" width="80" height="60" as="geometry" />
        </mxCell>
        <mxCell id="Z5-1r_VYY9yfkDdFCzC5-91" value="" style="shape=cylinder3;whiteSpace=wrap;html=1;boundedLbl=1;backgroundOutline=1;size=15;rotation=90;" parent="Z5-1r_VYY9yfkDdFCzC5-95" vertex="1">
          <mxGeometry x="10" y="-10" width="60" height="80" as="geometry" />
        </mxCell>
        <mxCell id="Z5-1r_VYY9yfkDdFCzC5-92" value="Table1" style="text;html=1;align=center;verticalAlign=middle;whiteSpace=wrap;rounded=0;" parent="Z5-1r_VYY9yfkDdFCzC5-95" vertex="1">
          <mxGeometry width="60" height="30" as="geometry" />
        </mxCell>
        <mxCell id="Z5-1r_VYY9yfkDdFCzC5-93" value="Table2" style="text;html=1;align=center;verticalAlign=middle;whiteSpace=wrap;rounded=0;" parent="Z5-1r_VYY9yfkDdFCzC5-95" vertex="1">
          <mxGeometry y="15" width="60" height="30" as="geometry" />
        </mxCell>
        <mxCell id="Z5-1r_VYY9yfkDdFCzC5-94" value="Table3" style="text;html=1;align=center;verticalAlign=middle;whiteSpace=wrap;rounded=0;" parent="Z5-1r_VYY9yfkDdFCzC5-95" vertex="1">
          <mxGeometry y="30" width="60" height="30" as="geometry" />
        </mxCell>
        <mxCell id="Z5-1r_VYY9yfkDdFCzC5-97" value="" style="group" parent="1" vertex="1" connectable="0">
          <mxGeometry x="343" y="830" width="80" height="60" as="geometry" />
        </mxCell>
        <mxCell id="Z5-1r_VYY9yfkDdFCzC5-98" value="" style="shape=cylinder3;whiteSpace=wrap;html=1;boundedLbl=1;backgroundOutline=1;size=15;rotation=90;" parent="Z5-1r_VYY9yfkDdFCzC5-97" vertex="1">
          <mxGeometry x="10" y="-10" width="60" height="80" as="geometry" />
        </mxCell>
        <mxCell id="Z5-1r_VYY9yfkDdFCzC5-99" value="Table1" style="text;html=1;align=center;verticalAlign=middle;whiteSpace=wrap;rounded=0;" parent="Z5-1r_VYY9yfkDdFCzC5-97" vertex="1">
          <mxGeometry width="60" height="30" as="geometry" />
        </mxCell>
        <mxCell id="Z5-1r_VYY9yfkDdFCzC5-100" value="Table2" style="text;html=1;align=center;verticalAlign=middle;whiteSpace=wrap;rounded=0;" parent="Z5-1r_VYY9yfkDdFCzC5-97" vertex="1">
          <mxGeometry y="15" width="60" height="30" as="geometry" />
        </mxCell>
        <mxCell id="Z5-1r_VYY9yfkDdFCzC5-101" value="Table3" style="text;html=1;align=center;verticalAlign=middle;whiteSpace=wrap;rounded=0;" parent="Z5-1r_VYY9yfkDdFCzC5-97" vertex="1">
          <mxGeometry y="30" width="60" height="30" as="geometry" />
        </mxCell>
        <mxCell id="Z5-1r_VYY9yfkDdFCzC5-107" value="" style="group" parent="1" vertex="1" connectable="0">
          <mxGeometry x="473" y="830" width="80" height="60" as="geometry" />
        </mxCell>
        <mxCell id="Z5-1r_VYY9yfkDdFCzC5-108" value="" style="shape=cylinder3;whiteSpace=wrap;html=1;boundedLbl=1;backgroundOutline=1;size=15;rotation=90;" parent="Z5-1r_VYY9yfkDdFCzC5-107" vertex="1">
          <mxGeometry x="10" y="-10" width="60" height="80" as="geometry" />
        </mxCell>
        <mxCell id="Z5-1r_VYY9yfkDdFCzC5-109" value="Table1" style="text;html=1;align=center;verticalAlign=middle;whiteSpace=wrap;rounded=0;" parent="Z5-1r_VYY9yfkDdFCzC5-107" vertex="1">
          <mxGeometry width="60" height="30" as="geometry" />
        </mxCell>
        <mxCell id="Z5-1r_VYY9yfkDdFCzC5-110" value="Table2" style="text;html=1;align=center;verticalAlign=middle;whiteSpace=wrap;rounded=0;" parent="Z5-1r_VYY9yfkDdFCzC5-107" vertex="1">
          <mxGeometry y="15" width="60" height="30" as="geometry" />
        </mxCell>
        <mxCell id="Z5-1r_VYY9yfkDdFCzC5-111" value="Table3" style="text;html=1;align=center;verticalAlign=middle;whiteSpace=wrap;rounded=0;" parent="Z5-1r_VYY9yfkDdFCzC5-107" vertex="1">
          <mxGeometry y="30" width="60" height="30" as="geometry" />
        </mxCell>
        <mxCell id="Z5-1r_VYY9yfkDdFCzC5-112" value="" style="group" parent="1" vertex="1" connectable="0">
          <mxGeometry x="603" y="830" width="80" height="60" as="geometry" />
        </mxCell>
        <mxCell id="Z5-1r_VYY9yfkDdFCzC5-113" value="" style="shape=cylinder3;whiteSpace=wrap;html=1;boundedLbl=1;backgroundOutline=1;size=15;rotation=90;" parent="Z5-1r_VYY9yfkDdFCzC5-112" vertex="1">
          <mxGeometry x="10" y="-10" width="60" height="80" as="geometry" />
        </mxCell>
        <mxCell id="Z5-1r_VYY9yfkDdFCzC5-114" value="Table1" style="text;html=1;align=center;verticalAlign=middle;whiteSpace=wrap;rounded=0;" parent="Z5-1r_VYY9yfkDdFCzC5-112" vertex="1">
          <mxGeometry width="60" height="30" as="geometry" />
        </mxCell>
        <mxCell id="Z5-1r_VYY9yfkDdFCzC5-115" value="Table2" style="text;html=1;align=center;verticalAlign=middle;whiteSpace=wrap;rounded=0;" parent="Z5-1r_VYY9yfkDdFCzC5-112" vertex="1">
          <mxGeometry y="15" width="60" height="30" as="geometry" />
        </mxCell>
        <mxCell id="Z5-1r_VYY9yfkDdFCzC5-116" value="Table3" style="text;html=1;align=center;verticalAlign=middle;whiteSpace=wrap;rounded=0;" parent="Z5-1r_VYY9yfkDdFCzC5-112" vertex="1">
          <mxGeometry y="30" width="60" height="30" as="geometry" />
        </mxCell>
        <mxCell id="Z5-1r_VYY9yfkDdFCzC5-117" value="" style="group" parent="1" vertex="1" connectable="0">
          <mxGeometry x="743" y="830" width="80" height="60" as="geometry" />
        </mxCell>
        <mxCell id="Z5-1r_VYY9yfkDdFCzC5-118" value="" style="shape=cylinder3;whiteSpace=wrap;html=1;boundedLbl=1;backgroundOutline=1;size=15;rotation=90;" parent="Z5-1r_VYY9yfkDdFCzC5-117" vertex="1">
          <mxGeometry x="10" y="-10" width="60" height="80" as="geometry" />
        </mxCell>
        <mxCell id="Z5-1r_VYY9yfkDdFCzC5-119" value="Table1" style="text;html=1;align=center;verticalAlign=middle;whiteSpace=wrap;rounded=0;" parent="Z5-1r_VYY9yfkDdFCzC5-117" vertex="1">
          <mxGeometry width="60" height="30" as="geometry" />
        </mxCell>
        <mxCell id="Z5-1r_VYY9yfkDdFCzC5-120" value="Table2" style="text;html=1;align=center;verticalAlign=middle;whiteSpace=wrap;rounded=0;" parent="Z5-1r_VYY9yfkDdFCzC5-117" vertex="1">
          <mxGeometry y="15" width="60" height="30" as="geometry" />
        </mxCell>
        <mxCell id="Z5-1r_VYY9yfkDdFCzC5-121" value="Table3" style="text;html=1;align=center;verticalAlign=middle;whiteSpace=wrap;rounded=0;" parent="Z5-1r_VYY9yfkDdFCzC5-117" vertex="1">
          <mxGeometry y="30" width="60" height="30" as="geometry" />
        </mxCell>
        <mxCell id="Z5-1r_VYY9yfkDdFCzC5-122" style="edgeStyle=orthogonalEdgeStyle;rounded=0;orthogonalLoop=1;jettySize=auto;html=1;entryX=0.5;entryY=0;entryDx=0;entryDy=0;" parent="1" source="Z5-1r_VYY9yfkDdFCzC5-60" target="Z5-1r_VYY9yfkDdFCzC5-92" edge="1">
          <mxGeometry relative="1" as="geometry" />
        </mxCell>
        <mxCell id="Z5-1r_VYY9yfkDdFCzC5-123" style="edgeStyle=orthogonalEdgeStyle;rounded=0;orthogonalLoop=1;jettySize=auto;html=1;entryX=0.5;entryY=0;entryDx=0;entryDy=0;" parent="1" source="Z5-1r_VYY9yfkDdFCzC5-61" target="Z5-1r_VYY9yfkDdFCzC5-99" edge="1">
          <mxGeometry relative="1" as="geometry" />
        </mxCell>
        <mxCell id="Z5-1r_VYY9yfkDdFCzC5-124" style="edgeStyle=orthogonalEdgeStyle;rounded=0;orthogonalLoop=1;jettySize=auto;html=1;entryX=0.5;entryY=0;entryDx=0;entryDy=0;" parent="1" source="Z5-1r_VYY9yfkDdFCzC5-72" target="Z5-1r_VYY9yfkDdFCzC5-109" edge="1">
          <mxGeometry relative="1" as="geometry" />
        </mxCell>
        <mxCell id="Z5-1r_VYY9yfkDdFCzC5-125" style="edgeStyle=orthogonalEdgeStyle;rounded=0;orthogonalLoop=1;jettySize=auto;html=1;entryX=0.5;entryY=0;entryDx=0;entryDy=0;" parent="1" source="Z5-1r_VYY9yfkDdFCzC5-77" target="Z5-1r_VYY9yfkDdFCzC5-114" edge="1">
          <mxGeometry relative="1" as="geometry" />
        </mxCell>
        <mxCell id="Z5-1r_VYY9yfkDdFCzC5-126" style="edgeStyle=orthogonalEdgeStyle;rounded=0;orthogonalLoop=1;jettySize=auto;html=1;entryX=0.5;entryY=0;entryDx=0;entryDy=0;" parent="1" source="Z5-1r_VYY9yfkDdFCzC5-82" target="Z5-1r_VYY9yfkDdFCzC5-119" edge="1">
          <mxGeometry relative="1" as="geometry" />
        </mxCell>
        <mxCell id="Z5-1r_VYY9yfkDdFCzC5-129" value="paams-business-view" style="rounded=1;whiteSpace=wrap;html=1;" parent="1" vertex="1">
          <mxGeometry x="428" y="1000" width="120" height="60" as="geometry" />
        </mxCell>
        <mxCell id="Z5-1r_VYY9yfkDdFCzC5-136" value="" style="endArrow=classic;html=1;rounded=0;entryX=0.5;entryY=1;entryDx=0;entryDy=0;" parent="1" target="Z5-1r_VYY9yfkDdFCzC5-94" edge="1">
          <mxGeometry width="50" height="50" relative="1" as="geometry">
            <mxPoint x="483" y="1000" as="sourcePoint" />
            <mxPoint x="533" y="950" as="targetPoint" />
          </mxGeometry>
        </mxCell>
        <mxCell id="Z5-1r_VYY9yfkDdFCzC5-137" value="" style="endArrow=classic;html=1;rounded=0;entryX=0.5;entryY=1;entryDx=0;entryDy=0;" parent="1" target="Z5-1r_VYY9yfkDdFCzC5-101" edge="1">
          <mxGeometry width="50" height="50" relative="1" as="geometry">
            <mxPoint x="483" y="1000" as="sourcePoint" />
            <mxPoint x="533" y="950" as="targetPoint" />
          </mxGeometry>
        </mxCell>
        <mxCell id="Z5-1r_VYY9yfkDdFCzC5-138" value="" style="endArrow=classic;html=1;rounded=0;entryX=0.5;entryY=1;entryDx=0;entryDy=0;" parent="1" target="Z5-1r_VYY9yfkDdFCzC5-111" edge="1">
          <mxGeometry width="50" height="50" relative="1" as="geometry">
            <mxPoint x="483" y="1000" as="sourcePoint" />
            <mxPoint x="533" y="950" as="targetPoint" />
          </mxGeometry>
        </mxCell>
        <mxCell id="Z5-1r_VYY9yfkDdFCzC5-139" value="" style="endArrow=classic;html=1;rounded=0;entryX=0.5;entryY=1;entryDx=0;entryDy=0;" parent="1" target="Z5-1r_VYY9yfkDdFCzC5-116" edge="1">
          <mxGeometry width="50" height="50" relative="1" as="geometry">
            <mxPoint x="483" y="1000" as="sourcePoint" />
            <mxPoint x="573" y="950" as="targetPoint" />
          </mxGeometry>
        </mxCell>
        <mxCell id="Z5-1r_VYY9yfkDdFCzC5-140" value="" style="endArrow=classic;html=1;rounded=0;entryX=0.5;entryY=1;entryDx=0;entryDy=0;" parent="1" target="Z5-1r_VYY9yfkDdFCzC5-121" edge="1">
          <mxGeometry width="50" height="50" relative="1" as="geometry">
            <mxPoint x="483" y="1000" as="sourcePoint" />
            <mxPoint x="733" y="940" as="targetPoint" />
          </mxGeometry>
        </mxCell>
        <mxCell id="Z5-1r_VYY9yfkDdFCzC5-141" value="select" style="text;html=1;align=center;verticalAlign=middle;whiteSpace=wrap;rounded=0;" parent="1" vertex="1">
          <mxGeometry x="453" y="950" width="60" height="30" as="geometry" />
        </mxCell>
        <mxCell id="d3hysCNAhfZ4Tvbttm1y-4" style="edgeStyle=orthogonalEdgeStyle;rounded=0;orthogonalLoop=1;jettySize=auto;html=1;entryX=0.5;entryY=0;entryDx=0;entryDy=0;" edge="1" parent="1" source="d3hysCNAhfZ4Tvbttm1y-5" target="d3hysCNAhfZ4Tvbttm1y-7">
          <mxGeometry relative="1" as="geometry">
            <mxPoint x="-270" y="210" as="targetPoint" />
          </mxGeometry>
        </mxCell>
        <mxCell id="d3hysCNAhfZ4Tvbttm1y-5" value="Kafka" style="shape=cylinder3;whiteSpace=wrap;html=1;boundedLbl=1;backgroundOutline=1;size=15;rotation=0;" vertex="1" parent="1">
          <mxGeometry x="-290" y="100" width="40" height="70" as="geometry" />
        </mxCell>
        <mxCell id="d3hysCNAhfZ4Tvbttm1y-6" style="edgeStyle=orthogonalEdgeStyle;rounded=0;orthogonalLoop=1;jettySize=auto;html=1;entryX=0.5;entryY=0;entryDx=0;entryDy=0;" edge="1" parent="1" source="d3hysCNAhfZ4Tvbttm1y-7" target="d3hysCNAhfZ4Tvbttm1y-15">
          <mxGeometry relative="1" as="geometry">
            <mxPoint x="-270" y="300" as="targetPoint" />
          </mxGeometry>
        </mxCell>
        <mxCell id="d3hysCNAhfZ4Tvbttm1y-7" value="关联信息" style="rounded=1;whiteSpace=wrap;html=1;" vertex="1" parent="1">
          <mxGeometry x="-315" y="210" width="90" height="40" as="geometry" />
        </mxCell>
        <mxCell id="d3hysCNAhfZ4Tvbttm1y-8" style="edgeStyle=orthogonalEdgeStyle;rounded=0;orthogonalLoop=1;jettySize=auto;html=1;entryX=1;entryY=0.5;entryDx=0;entryDy=0;" edge="1" parent="1" source="d3hysCNAhfZ4Tvbttm1y-9" target="d3hysCNAhfZ4Tvbttm1y-7">
          <mxGeometry relative="1" as="geometry" />
        </mxCell>
        <mxCell id="d3hysCNAhfZ4Tvbttm1y-9" value="Redis" style="shape=cylinder3;whiteSpace=wrap;html=1;boundedLbl=1;backgroundOutline=1;size=15;rotation=0;" vertex="1" parent="1">
          <mxGeometry x="-170" y="195" width="40" height="70" as="geometry" />
        </mxCell>
        <mxCell id="d3hysCNAhfZ4Tvbttm1y-10" style="edgeStyle=orthogonalEdgeStyle;rounded=0;orthogonalLoop=1;jettySize=auto;html=1;entryX=0.5;entryY=0;entryDx=0;entryDy=0;" edge="1" parent="1" source="d3hysCNAhfZ4Tvbttm1y-15" target="d3hysCNAhfZ4Tvbttm1y-18">
          <mxGeometry relative="1" as="geometry" />
        </mxCell>
        <mxCell id="d3hysCNAhfZ4Tvbttm1y-11" style="edgeStyle=orthogonalEdgeStyle;rounded=0;orthogonalLoop=1;jettySize=auto;html=1;entryX=0.5;entryY=0;entryDx=0;entryDy=0;" edge="1" parent="1" source="d3hysCNAhfZ4Tvbttm1y-15" target="d3hysCNAhfZ4Tvbttm1y-29">
          <mxGeometry relative="1" as="geometry" />
        </mxCell>
        <mxCell id="d3hysCNAhfZ4Tvbttm1y-12" style="edgeStyle=orthogonalEdgeStyle;rounded=0;orthogonalLoop=1;jettySize=auto;html=1;entryX=0.5;entryY=0;entryDx=0;entryDy=0;" edge="1" parent="1" source="d3hysCNAhfZ4Tvbttm1y-15" target="d3hysCNAhfZ4Tvbttm1y-35">
          <mxGeometry relative="1" as="geometry" />
        </mxCell>
        <mxCell id="d3hysCNAhfZ4Tvbttm1y-13" style="edgeStyle=orthogonalEdgeStyle;rounded=0;orthogonalLoop=1;jettySize=auto;html=1;entryX=0.5;entryY=0;entryDx=0;entryDy=0;" edge="1" parent="1" source="d3hysCNAhfZ4Tvbttm1y-15" target="d3hysCNAhfZ4Tvbttm1y-41">
          <mxGeometry relative="1" as="geometry" />
        </mxCell>
        <mxCell id="d3hysCNAhfZ4Tvbttm1y-14" style="edgeStyle=orthogonalEdgeStyle;rounded=0;orthogonalLoop=1;jettySize=auto;html=1;entryX=0.5;entryY=0;entryDx=0;entryDy=0;" edge="1" parent="1" source="d3hysCNAhfZ4Tvbttm1y-15" target="d3hysCNAhfZ4Tvbttm1y-47">
          <mxGeometry relative="1" as="geometry" />
        </mxCell>
        <mxCell id="d3hysCNAhfZ4Tvbttm1y-15" value="InputStream" style="rounded=1;whiteSpace=wrap;html=1;" vertex="1" parent="1">
          <mxGeometry x="-315" y="300" width="90" height="40" as="geometry" />
        </mxCell>
        <mxCell id="d3hysCNAhfZ4Tvbttm1y-16" value="" style="group" vertex="1" connectable="0" parent="1">
          <mxGeometry x="-620" y="411" width="130" height="390" as="geometry" />
        </mxCell>
        <mxCell id="d3hysCNAhfZ4Tvbttm1y-17" style="edgeStyle=orthogonalEdgeStyle;rounded=0;orthogonalLoop=1;jettySize=auto;html=1;entryX=0.5;entryY=0;entryDx=0;entryDy=0;" edge="1" parent="d3hysCNAhfZ4Tvbttm1y-16" source="d3hysCNAhfZ4Tvbttm1y-18" target="d3hysCNAhfZ4Tvbttm1y-24">
          <mxGeometry relative="1" as="geometry" />
        </mxCell>
        <mxCell id="d3hysCNAhfZ4Tvbttm1y-18" value="" style="rounded=0;whiteSpace=wrap;html=1;" vertex="1" parent="d3hysCNAhfZ4Tvbttm1y-16">
          <mxGeometry width="130" height="190" as="geometry" />
        </mxCell>
        <mxCell id="d3hysCNAhfZ4Tvbttm1y-19" value="Instacne 维度统计" style="text;html=1;align=center;verticalAlign=middle;whiteSpace=wrap;rounded=0;" vertex="1" parent="d3hysCNAhfZ4Tvbttm1y-16">
          <mxGeometry x="10" y="10" width="99.99999999999999" height="30" as="geometry" />
        </mxCell>
        <mxCell id="d3hysCNAhfZ4Tvbttm1y-20" value="一分钟滚动区间" style="rounded=0;whiteSpace=wrap;html=1;" vertex="1" parent="d3hysCNAhfZ4Tvbttm1y-16">
          <mxGeometry x="10" y="50" width="100" height="30" as="geometry" />
        </mxCell>
        <mxCell id="d3hysCNAhfZ4Tvbttm1y-21" value="五分钟滑动区&lt;span style=&quot;color: rgba(0, 0, 0, 0); font-family: monospace; font-size: 0px; text-align: start; text-wrap-mode: nowrap;&quot;&gt;%3CmxGraphModel%3E%3Croot%3E%3CmxCell%20id%3D%220%22%2F%3E%3CmxCell%20id%3D%221%22%20parent%3D%220%22%2F%3E%3CmxCell%20id%3D%222%22%20value%3D%22%E4%B8%80%E5%88%86%E9%92%9F%E5%8C%BA%E9%97%B4%22%20style%3D%22rounded%3D0%3BwhiteSpace%3Dwrap%3Bhtml%3D1%3B%22%20vertex%3D%221%22%20parent%3D%221%22%3E%3CmxGeometry%20x%3D%2260%22%20y%3D%22460%22%20width%3D%22100%22%20height%3D%2230%22%20as%3D%22geometry%22%2F%3E%3C%2FmxCell%3E%3C%2Froot%3E%3C%2FmxGraphModel%3E&lt;/span&gt;间" style="rounded=0;whiteSpace=wrap;html=1;" vertex="1" parent="d3hysCNAhfZ4Tvbttm1y-16">
          <mxGeometry x="10" y="90" width="100" height="30" as="geometry" />
        </mxCell>
        <mxCell id="d3hysCNAhfZ4Tvbttm1y-22" value="一天滚动区&lt;span style=&quot;color: rgba(0, 0, 0, 0); font-family: monospace; font-size: 0px; text-align: start; text-wrap-mode: nowrap;&quot;&gt;%3CmxGraphModel%3E%3Croot%3E%3CmxCell%20id%3D%220%22%2F%3E%3CmxCell%20id%3D%221%22%20parent%3D%220%22%2F%3E%3CmxCell%20id%3D%222%22%20value%3D%22%E4%B8%80%E5%88%86%E9%92%9F%E5%8C%BA%E9%97%B4%22%20style%3D%22rounded%3D0%3BwhiteSpace%3Dwrap%3Bhtml%3D1%3B%22%20vertex%3D%221%22%20parent%3D%221%22%3E%3CmxGeometry%20x%3D%2260%22%20y%3D%22460%22%20width%3D%22100%22%20height%3D%2230%22%20as%3D%22geometry%22%2F%3E%3C%2FmxCell%3E%3C%2Froot%3E%3C%2FmxGraphModel%3E&lt;/span&gt;间" style="rounded=0;whiteSpace=wrap;html=1;" vertex="1" parent="d3hysCNAhfZ4Tvbttm1y-16">
          <mxGeometry x="10" y="130" width="100" height="30" as="geometry" />
        </mxCell>
        <mxCell id="d3hysCNAhfZ4Tvbttm1y-23" value="" style="group" vertex="1" connectable="0" parent="d3hysCNAhfZ4Tvbttm1y-16">
          <mxGeometry x="9.75" y="230" width="110" height="150" as="geometry" />
        </mxCell>
        <mxCell id="d3hysCNAhfZ4Tvbttm1y-24" value="" style="rounded=0;whiteSpace=wrap;html=1;" vertex="1" parent="d3hysCNAhfZ4Tvbttm1y-23">
          <mxGeometry width="110" height="150" as="geometry" />
        </mxCell>
        <mxCell id="d3hysCNAhfZ4Tvbttm1y-25" value="1M Topic" style="ellipse;whiteSpace=wrap;html=1;" vertex="1" parent="d3hysCNAhfZ4Tvbttm1y-23">
          <mxGeometry x="10" y="20" width="95" height="30" as="geometry" />
        </mxCell>
        <mxCell id="d3hysCNAhfZ4Tvbttm1y-26" value="5M Topic" style="ellipse;whiteSpace=wrap;html=1;" vertex="1" parent="d3hysCNAhfZ4Tvbttm1y-23">
          <mxGeometry x="10" y="60" width="95" height="30" as="geometry" />
        </mxCell>
        <mxCell id="d3hysCNAhfZ4Tvbttm1y-27" value="1D Topic" style="ellipse;whiteSpace=wrap;html=1;" vertex="1" parent="d3hysCNAhfZ4Tvbttm1y-23">
          <mxGeometry x="7.5" y="100" width="95" height="30" as="geometry" />
        </mxCell>
        <mxCell id="d3hysCNAhfZ4Tvbttm1y-28" value="" style="group" vertex="1" connectable="0" parent="1">
          <mxGeometry x="-470" y="410" width="120" height="310" as="geometry" />
        </mxCell>
        <mxCell id="d3hysCNAhfZ4Tvbttm1y-29" value="" style="rounded=0;whiteSpace=wrap;html=1;" vertex="1" parent="d3hysCNAhfZ4Tvbttm1y-28">
          <mxGeometry width="120" height="190" as="geometry" />
        </mxCell>
        <mxCell id="d3hysCNAhfZ4Tvbttm1y-30" value="Service 维度统计" style="text;html=1;align=center;verticalAlign=middle;whiteSpace=wrap;rounded=0;" vertex="1" parent="d3hysCNAhfZ4Tvbttm1y-28">
          <mxGeometry x="10" y="10.163934426229508" width="100" height="30.491803278688526" as="geometry" />
        </mxCell>
        <mxCell id="d3hysCNAhfZ4Tvbttm1y-31" value="一分钟滚动区间" style="rounded=0;whiteSpace=wrap;html=1;" vertex="1" parent="d3hysCNAhfZ4Tvbttm1y-28">
          <mxGeometry x="10" y="50" width="100" height="30" as="geometry" />
        </mxCell>
        <mxCell id="d3hysCNAhfZ4Tvbttm1y-32" value="五分钟滑动区&lt;span style=&quot;color: rgba(0, 0, 0, 0); font-family: monospace; font-size: 0px; text-align: start; text-wrap-mode: nowrap;&quot;&gt;%3CmxGraphModel%3E%3Croot%3E%3CmxCell%20id%3D%220%22%2F%3E%3CmxCell%20id%3D%221%22%20parent%3D%220%22%2F%3E%3CmxCell%20id%3D%222%22%20value%3D%22%E4%B8%80%E5%88%86%E9%92%9F%E5%8C%BA%E9%97%B4%22%20style%3D%22rounded%3D0%3BwhiteSpace%3Dwrap%3Bhtml%3D1%3B%22%20vertex%3D%221%22%20parent%3D%221%22%3E%3CmxGeometry%20x%3D%2260%22%20y%3D%22460%22%20width%3D%22100%22%20height%3D%2230%22%20as%3D%22geometry%22%2F%3E%3C%2FmxCell%3E%3C%2Froot%3E%3C%2FmxGraphModel%3E&lt;/span&gt;间" style="rounded=0;whiteSpace=wrap;html=1;" vertex="1" parent="d3hysCNAhfZ4Tvbttm1y-28">
          <mxGeometry x="10" y="90" width="100" height="30" as="geometry" />
        </mxCell>
        <mxCell id="d3hysCNAhfZ4Tvbttm1y-33" value="一天滚动区&lt;span style=&quot;color: rgba(0, 0, 0, 0); font-family: monospace; font-size: 0px; text-align: start; text-wrap-mode: nowrap;&quot;&gt;%3CmxGraphModel%3E%3Croot%3E%3CmxCell%20id%3D%220%22%2F%3E%3CmxCell%20id%3D%221%22%20parent%3D%220%22%2F%3E%3CmxCell%20id%3D%222%22%20value%3D%22%E4%B8%80%E5%88%86%E9%92%9F%E5%8C%BA%E9%97%B4%22%20style%3D%22rounded%3D0%3BwhiteSpace%3Dwrap%3Bhtml%3D1%3B%22%20vertex%3D%221%22%20parent%3D%221%22%3E%3CmxGeometry%20x%3D%2260%22%20y%3D%22460%22%20width%3D%22100%22%20height%3D%2230%22%20as%3D%22geometry%22%2F%3E%3C%2FmxCell%3E%3C%2Froot%3E%3C%2FmxGraphModel%3E&lt;/span&gt;间" style="rounded=0;whiteSpace=wrap;html=1;" vertex="1" parent="d3hysCNAhfZ4Tvbttm1y-28">
          <mxGeometry x="10" y="130" width="100" height="30" as="geometry" />
        </mxCell>
        <mxCell id="d3hysCNAhfZ4Tvbttm1y-34" value="" style="group" vertex="1" connectable="0" parent="1">
          <mxGeometry x="-340" y="411" width="120" height="189" as="geometry" />
        </mxCell>
        <mxCell id="d3hysCNAhfZ4Tvbttm1y-35" value="" style="rounded=0;whiteSpace=wrap;html=1;" vertex="1" parent="d3hysCNAhfZ4Tvbttm1y-34">
          <mxGeometry width="120" height="188.99999999999997" as="geometry" />
        </mxCell>
        <mxCell id="d3hysCNAhfZ4Tvbttm1y-36" value="Room 维度统计" style="text;html=1;align=center;verticalAlign=middle;whiteSpace=wrap;rounded=0;" vertex="1" parent="d3hysCNAhfZ4Tvbttm1y-34">
          <mxGeometry x="5.950413223140496" y="5.577049180327869" width="99.17355371900827" height="18.59016393442623" as="geometry" />
        </mxCell>
        <mxCell id="d3hysCNAhfZ4Tvbttm1y-37" value="一分钟滚动区间" style="rounded=0;whiteSpace=wrap;html=1;" vertex="1" parent="d3hysCNAhfZ4Tvbttm1y-34">
          <mxGeometry x="10" y="49" width="100" height="30" as="geometry" />
        </mxCell>
        <mxCell id="d3hysCNAhfZ4Tvbttm1y-38" value="五分钟滑动区&lt;span style=&quot;color: rgba(0, 0, 0, 0); font-family: monospace; font-size: 0px; text-align: start; text-wrap-mode: nowrap;&quot;&gt;%3CmxGraphModel%3E%3Croot%3E%3CmxCell%20id%3D%220%22%2F%3E%3CmxCell%20id%3D%221%22%20parent%3D%220%22%2F%3E%3CmxCell%20id%3D%222%22%20value%3D%22%E4%B8%80%E5%88%86%E9%92%9F%E5%8C%BA%E9%97%B4%22%20style%3D%22rounded%3D0%3BwhiteSpace%3Dwrap%3Bhtml%3D1%3B%22%20vertex%3D%221%22%20parent%3D%221%22%3E%3CmxGeometry%20x%3D%2260%22%20y%3D%22460%22%20width%3D%22100%22%20height%3D%2230%22%20as%3D%22geometry%22%2F%3E%3C%2FmxCell%3E%3C%2Froot%3E%3C%2FmxGraphModel%3E&lt;/span&gt;间" style="rounded=0;whiteSpace=wrap;html=1;" vertex="1" parent="d3hysCNAhfZ4Tvbttm1y-34">
          <mxGeometry x="10" y="89" width="100" height="30" as="geometry" />
        </mxCell>
        <mxCell id="d3hysCNAhfZ4Tvbttm1y-39" value="一天滚动区&lt;span style=&quot;color: rgba(0, 0, 0, 0); font-family: monospace; font-size: 0px; text-align: start; text-wrap-mode: nowrap;&quot;&gt;%3CmxGraphModel%3E%3Croot%3E%3CmxCell%20id%3D%220%22%2F%3E%3CmxCell%20id%3D%221%22%20parent%3D%220%22%2F%3E%3CmxCell%20id%3D%222%22%20value%3D%22%E4%B8%80%E5%88%86%E9%92%9F%E5%8C%BA%E9%97%B4%22%20style%3D%22rounded%3D0%3BwhiteSpace%3Dwrap%3Bhtml%3D1%3B%22%20vertex%3D%221%22%20parent%3D%221%22%3E%3CmxGeometry%20x%3D%2260%22%20y%3D%22460%22%20width%3D%22100%22%20height%3D%2230%22%20as%3D%22geometry%22%2F%3E%3C%2FmxCell%3E%3C%2Froot%3E%3C%2FmxGraphModel%3E&lt;/span&gt;间" style="rounded=0;whiteSpace=wrap;html=1;" vertex="1" parent="d3hysCNAhfZ4Tvbttm1y-34">
          <mxGeometry x="10" y="129" width="100" height="30" as="geometry" />
        </mxCell>
        <mxCell id="d3hysCNAhfZ4Tvbttm1y-40" value="" style="group" vertex="1" connectable="0" parent="1">
          <mxGeometry x="-208" y="412.5" width="120" height="187.5" as="geometry" />
        </mxCell>
        <mxCell id="d3hysCNAhfZ4Tvbttm1y-41" value="" style="rounded=0;whiteSpace=wrap;html=1;" vertex="1" parent="d3hysCNAhfZ4Tvbttm1y-40">
          <mxGeometry width="120" height="187.5" as="geometry" />
        </mxCell>
        <mxCell id="d3hysCNAhfZ4Tvbttm1y-42" value="Project 维度统计" style="text;html=1;align=center;verticalAlign=middle;whiteSpace=wrap;rounded=0;" vertex="1" parent="d3hysCNAhfZ4Tvbttm1y-40">
          <mxGeometry x="11.803278688524589" y="5.532786885245902" width="98.36065573770492" height="18.442622950819672" as="geometry" />
        </mxCell>
        <mxCell id="d3hysCNAhfZ4Tvbttm1y-43" value="一分钟滚动区间" style="rounded=0;whiteSpace=wrap;html=1;" vertex="1" parent="d3hysCNAhfZ4Tvbttm1y-40">
          <mxGeometry x="10" y="47.5" width="100" height="30" as="geometry" />
        </mxCell>
        <mxCell id="d3hysCNAhfZ4Tvbttm1y-44" value="五分钟滑动区&lt;span style=&quot;color: rgba(0, 0, 0, 0); font-family: monospace; font-size: 0px; text-align: start; text-wrap-mode: nowrap;&quot;&gt;%3CmxGraphModel%3E%3Croot%3E%3CmxCell%20id%3D%220%22%2F%3E%3CmxCell%20id%3D%221%22%20parent%3D%220%22%2F%3E%3CmxCell%20id%3D%222%22%20value%3D%22%E4%B8%80%E5%88%86%E9%92%9F%E5%8C%BA%E9%97%B4%22%20style%3D%22rounded%3D0%3BwhiteSpace%3Dwrap%3Bhtml%3D1%3B%22%20vertex%3D%221%22%20parent%3D%221%22%3E%3CmxGeometry%20x%3D%2260%22%20y%3D%22460%22%20width%3D%22100%22%20height%3D%2230%22%20as%3D%22geometry%22%2F%3E%3C%2FmxCell%3E%3C%2Froot%3E%3C%2FmxGraphModel%3E&lt;/span&gt;间" style="rounded=0;whiteSpace=wrap;html=1;" vertex="1" parent="d3hysCNAhfZ4Tvbttm1y-40">
          <mxGeometry x="10" y="87.5" width="100" height="30" as="geometry" />
        </mxCell>
        <mxCell id="d3hysCNAhfZ4Tvbttm1y-45" value="一天滚动区&lt;span style=&quot;color: rgba(0, 0, 0, 0); font-family: monospace; font-size: 0px; text-align: start; text-wrap-mode: nowrap;&quot;&gt;%3CmxGraphModel%3E%3Croot%3E%3CmxCell%20id%3D%220%22%2F%3E%3CmxCell%20id%3D%221%22%20parent%3D%220%22%2F%3E%3CmxCell%20id%3D%222%22%20value%3D%22%E4%B8%80%E5%88%86%E9%92%9F%E5%8C%BA%E9%97%B4%22%20style%3D%22rounded%3D0%3BwhiteSpace%3Dwrap%3Bhtml%3D1%3B%22%20vertex%3D%221%22%20parent%3D%221%22%3E%3CmxGeometry%20x%3D%2260%22%20y%3D%22460%22%20width%3D%22100%22%20height%3D%2230%22%20as%3D%22geometry%22%2F%3E%3C%2FmxCell%3E%3C%2Froot%3E%3C%2FmxGraphModel%3E&lt;/span&gt;间" style="rounded=0;whiteSpace=wrap;html=1;" vertex="1" parent="d3hysCNAhfZ4Tvbttm1y-40">
          <mxGeometry x="10" y="127.5" width="100" height="30" as="geometry" />
        </mxCell>
        <mxCell id="d3hysCNAhfZ4Tvbttm1y-46" value="" style="group" vertex="1" connectable="0" parent="1">
          <mxGeometry x="-74" y="417.5" width="120" height="182.5" as="geometry" />
        </mxCell>
        <mxCell id="d3hysCNAhfZ4Tvbttm1y-47" value="" style="rounded=0;whiteSpace=wrap;html=1;" vertex="1" parent="d3hysCNAhfZ4Tvbttm1y-46">
          <mxGeometry width="120" height="182.5" as="geometry" />
        </mxCell>
        <mxCell id="d3hysCNAhfZ4Tvbttm1y-48" value="Host 维度统计" style="text;html=1;align=center;verticalAlign=middle;whiteSpace=wrap;rounded=0;" vertex="1" parent="d3hysCNAhfZ4Tvbttm1y-46">
          <mxGeometry x="5.950413223140496" y="5.385245901639344" width="99.17355371900827" height="17.950819672131146" as="geometry" />
        </mxCell>
        <mxCell id="d3hysCNAhfZ4Tvbttm1y-49" value="一分钟滚动区间" style="rounded=0;whiteSpace=wrap;html=1;" vertex="1" parent="d3hysCNAhfZ4Tvbttm1y-46">
          <mxGeometry x="10" y="36.25" width="100" height="30" as="geometry" />
        </mxCell>
        <mxCell id="d3hysCNAhfZ4Tvbttm1y-50" value="五分钟滑动区&lt;span style=&quot;color: rgba(0, 0, 0, 0); font-family: monospace; font-size: 0px; text-align: start; text-wrap-mode: nowrap;&quot;&gt;%3CmxGraphModel%3E%3Croot%3E%3CmxCell%20id%3D%220%22%2F%3E%3CmxCell%20id%3D%221%22%20parent%3D%220%22%2F%3E%3CmxCell%20id%3D%222%22%20value%3D%22%E4%B8%80%E5%88%86%E9%92%9F%E5%8C%BA%E9%97%B4%22%20style%3D%22rounded%3D0%3BwhiteSpace%3Dwrap%3Bhtml%3D1%3B%22%20vertex%3D%221%22%20parent%3D%221%22%3E%3CmxGeometry%20x%3D%2260%22%20y%3D%22460%22%20width%3D%22100%22%20height%3D%2230%22%20as%3D%22geometry%22%2F%3E%3C%2FmxCell%3E%3C%2Froot%3E%3C%2FmxGraphModel%3E&lt;/span&gt;间" style="rounded=0;whiteSpace=wrap;html=1;" vertex="1" parent="d3hysCNAhfZ4Tvbttm1y-46">
          <mxGeometry x="10" y="76.25" width="100" height="30" as="geometry" />
        </mxCell>
        <mxCell id="d3hysCNAhfZ4Tvbttm1y-51" value="一天滚动区&lt;span style=&quot;color: rgba(0, 0, 0, 0); font-family: monospace; font-size: 0px; text-align: start; text-wrap-mode: nowrap;&quot;&gt;%3CmxGraphModel%3E%3Croot%3E%3CmxCell%20id%3D%220%22%2F%3E%3CmxCell%20id%3D%221%22%20parent%3D%220%22%2F%3E%3CmxCell%20id%3D%222%22%20value%3D%22%E4%B8%80%E5%88%86%E9%92%9F%E5%8C%BA%E9%97%B4%22%20style%3D%22rounded%3D0%3BwhiteSpace%3Dwrap%3Bhtml%3D1%3B%22%20vertex%3D%221%22%20parent%3D%221%22%3E%3CmxGeometry%20x%3D%2260%22%20y%3D%22460%22%20width%3D%22100%22%20height%3D%2230%22%20as%3D%22geometry%22%2F%3E%3C%2FmxCell%3E%3C%2Froot%3E%3C%2FmxGraphModel%3E&lt;/span&gt;间" style="rounded=0;whiteSpace=wrap;html=1;" vertex="1" parent="d3hysCNAhfZ4Tvbttm1y-46">
          <mxGeometry x="10" y="116.25" width="100" height="30" as="geometry" />
        </mxCell>
        <mxCell id="d3hysCNAhfZ4Tvbttm1y-52" value="" style="group" vertex="1" connectable="0" parent="1">
          <mxGeometry x="-465" y="640" width="110" height="150" as="geometry" />
        </mxCell>
        <mxCell id="d3hysCNAhfZ4Tvbttm1y-53" value="" style="rounded=0;whiteSpace=wrap;html=1;" vertex="1" parent="d3hysCNAhfZ4Tvbttm1y-52">
          <mxGeometry width="110" height="150" as="geometry" />
        </mxCell>
        <mxCell id="d3hysCNAhfZ4Tvbttm1y-54" value="1M Topic" style="ellipse;whiteSpace=wrap;html=1;" vertex="1" parent="d3hysCNAhfZ4Tvbttm1y-52">
          <mxGeometry x="7.75" y="20" width="95" height="30" as="geometry" />
        </mxCell>
        <mxCell id="d3hysCNAhfZ4Tvbttm1y-55" value="5M Topic" style="ellipse;whiteSpace=wrap;html=1;" vertex="1" parent="d3hysCNAhfZ4Tvbttm1y-52">
          <mxGeometry x="7.75" y="60" width="95" height="30" as="geometry" />
        </mxCell>
        <mxCell id="d3hysCNAhfZ4Tvbttm1y-56" value="1D Topic" style="ellipse;whiteSpace=wrap;html=1;" vertex="1" parent="d3hysCNAhfZ4Tvbttm1y-52">
          <mxGeometry x="5.25" y="100" width="95" height="30" as="geometry" />
        </mxCell>
        <mxCell id="d3hysCNAhfZ4Tvbttm1y-57" value="" style="group" vertex="1" connectable="0" parent="1">
          <mxGeometry x="-335" y="640" width="110" height="150" as="geometry" />
        </mxCell>
        <mxCell id="d3hysCNAhfZ4Tvbttm1y-58" value="" style="rounded=0;whiteSpace=wrap;html=1;" vertex="1" parent="d3hysCNAhfZ4Tvbttm1y-57">
          <mxGeometry width="110" height="150" as="geometry" />
        </mxCell>
        <mxCell id="d3hysCNAhfZ4Tvbttm1y-59" value="1M Topic" style="ellipse;whiteSpace=wrap;html=1;" vertex="1" parent="d3hysCNAhfZ4Tvbttm1y-57">
          <mxGeometry x="7.75" y="20" width="95" height="30" as="geometry" />
        </mxCell>
        <mxCell id="d3hysCNAhfZ4Tvbttm1y-60" value="5M Topic" style="ellipse;whiteSpace=wrap;html=1;" vertex="1" parent="d3hysCNAhfZ4Tvbttm1y-57">
          <mxGeometry x="7.75" y="60" width="95" height="30" as="geometry" />
        </mxCell>
        <mxCell id="d3hysCNAhfZ4Tvbttm1y-61" value="1D Topic" style="ellipse;whiteSpace=wrap;html=1;" vertex="1" parent="d3hysCNAhfZ4Tvbttm1y-57">
          <mxGeometry x="5.25" y="100" width="95" height="30" as="geometry" />
        </mxCell>
        <mxCell id="d3hysCNAhfZ4Tvbttm1y-62" value="" style="group" vertex="1" connectable="0" parent="1">
          <mxGeometry x="-203" y="640" width="110" height="150" as="geometry" />
        </mxCell>
        <mxCell id="d3hysCNAhfZ4Tvbttm1y-63" value="" style="rounded=0;whiteSpace=wrap;html=1;" vertex="1" parent="d3hysCNAhfZ4Tvbttm1y-62">
          <mxGeometry width="110" height="150" as="geometry" />
        </mxCell>
        <mxCell id="d3hysCNAhfZ4Tvbttm1y-64" value="1M Topic" style="ellipse;whiteSpace=wrap;html=1;" vertex="1" parent="d3hysCNAhfZ4Tvbttm1y-62">
          <mxGeometry x="7.75" y="20" width="95" height="30" as="geometry" />
        </mxCell>
        <mxCell id="d3hysCNAhfZ4Tvbttm1y-65" value="5M Topic" style="ellipse;whiteSpace=wrap;html=1;" vertex="1" parent="d3hysCNAhfZ4Tvbttm1y-62">
          <mxGeometry x="7.75" y="60" width="95" height="30" as="geometry" />
        </mxCell>
        <mxCell id="d3hysCNAhfZ4Tvbttm1y-66" value="1D Topic" style="ellipse;whiteSpace=wrap;html=1;" vertex="1" parent="d3hysCNAhfZ4Tvbttm1y-62">
          <mxGeometry x="5.25" y="100" width="95" height="30" as="geometry" />
        </mxCell>
        <mxCell id="d3hysCNAhfZ4Tvbttm1y-67" value="" style="group" vertex="1" connectable="0" parent="1">
          <mxGeometry x="-69" y="640" width="110" height="150" as="geometry" />
        </mxCell>
        <mxCell id="d3hysCNAhfZ4Tvbttm1y-68" value="" style="rounded=0;whiteSpace=wrap;html=1;" vertex="1" parent="d3hysCNAhfZ4Tvbttm1y-67">
          <mxGeometry width="110" height="150" as="geometry" />
        </mxCell>
        <mxCell id="d3hysCNAhfZ4Tvbttm1y-69" value="1M Topic" style="ellipse;whiteSpace=wrap;html=1;" vertex="1" parent="d3hysCNAhfZ4Tvbttm1y-67">
          <mxGeometry x="7.75" y="20" width="95" height="30" as="geometry" />
        </mxCell>
        <mxCell id="d3hysCNAhfZ4Tvbttm1y-70" value="5M Topic" style="ellipse;whiteSpace=wrap;html=1;" vertex="1" parent="d3hysCNAhfZ4Tvbttm1y-67">
          <mxGeometry x="7.75" y="60" width="95" height="30" as="geometry" />
        </mxCell>
        <mxCell id="d3hysCNAhfZ4Tvbttm1y-71" value="1D Topic" style="ellipse;whiteSpace=wrap;html=1;" vertex="1" parent="d3hysCNAhfZ4Tvbttm1y-67">
          <mxGeometry x="5.25" y="100" width="95" height="30" as="geometry" />
        </mxCell>
        <mxCell id="d3hysCNAhfZ4Tvbttm1y-72" style="edgeStyle=orthogonalEdgeStyle;rounded=0;orthogonalLoop=1;jettySize=auto;html=1;entryX=0.5;entryY=0;entryDx=0;entryDy=0;" edge="1" parent="1" source="d3hysCNAhfZ4Tvbttm1y-29" target="d3hysCNAhfZ4Tvbttm1y-53">
          <mxGeometry relative="1" as="geometry" />
        </mxCell>
        <mxCell id="d3hysCNAhfZ4Tvbttm1y-73" style="edgeStyle=orthogonalEdgeStyle;rounded=0;orthogonalLoop=1;jettySize=auto;html=1;entryX=0.5;entryY=0;entryDx=0;entryDy=0;" edge="1" parent="1" source="d3hysCNAhfZ4Tvbttm1y-35" target="d3hysCNAhfZ4Tvbttm1y-58">
          <mxGeometry relative="1" as="geometry" />
        </mxCell>
        <mxCell id="d3hysCNAhfZ4Tvbttm1y-74" style="edgeStyle=orthogonalEdgeStyle;rounded=0;orthogonalLoop=1;jettySize=auto;html=1;entryX=0.5;entryY=0;entryDx=0;entryDy=0;" edge="1" parent="1" source="d3hysCNAhfZ4Tvbttm1y-41" target="d3hysCNAhfZ4Tvbttm1y-63">
          <mxGeometry relative="1" as="geometry" />
        </mxCell>
        <mxCell id="d3hysCNAhfZ4Tvbttm1y-75" style="edgeStyle=orthogonalEdgeStyle;rounded=0;orthogonalLoop=1;jettySize=auto;html=1;entryX=0.5;entryY=0;entryDx=0;entryDy=0;" edge="1" parent="1" source="d3hysCNAhfZ4Tvbttm1y-47" target="d3hysCNAhfZ4Tvbttm1y-68">
          <mxGeometry relative="1" as="geometry" />
        </mxCell>
        <mxCell id="d3hysCNAhfZ4Tvbttm1y-76" value="" style="group" vertex="1" connectable="0" parent="1">
          <mxGeometry x="-580" y="830" width="80" height="60" as="geometry" />
        </mxCell>
        <mxCell id="d3hysCNAhfZ4Tvbttm1y-77" value="" style="shape=cylinder3;whiteSpace=wrap;html=1;boundedLbl=1;backgroundOutline=1;size=15;rotation=90;" vertex="1" parent="d3hysCNAhfZ4Tvbttm1y-76">
          <mxGeometry x="10" y="-10" width="60" height="80" as="geometry" />
        </mxCell>
        <mxCell id="d3hysCNAhfZ4Tvbttm1y-78" value="Table1" style="text;html=1;align=center;verticalAlign=middle;whiteSpace=wrap;rounded=0;" vertex="1" parent="d3hysCNAhfZ4Tvbttm1y-76">
          <mxGeometry width="60" height="30" as="geometry" />
        </mxCell>
        <mxCell id="d3hysCNAhfZ4Tvbttm1y-79" value="Table2" style="text;html=1;align=center;verticalAlign=middle;whiteSpace=wrap;rounded=0;" vertex="1" parent="d3hysCNAhfZ4Tvbttm1y-76">
          <mxGeometry y="15" width="60" height="30" as="geometry" />
        </mxCell>
        <mxCell id="d3hysCNAhfZ4Tvbttm1y-80" value="Table3" style="text;html=1;align=center;verticalAlign=middle;whiteSpace=wrap;rounded=0;" vertex="1" parent="d3hysCNAhfZ4Tvbttm1y-76">
          <mxGeometry y="30" width="60" height="30" as="geometry" />
        </mxCell>
        <mxCell id="d3hysCNAhfZ4Tvbttm1y-81" value="" style="group" vertex="1" connectable="0" parent="1">
          <mxGeometry x="-440" y="830" width="80" height="60" as="geometry" />
        </mxCell>
        <mxCell id="d3hysCNAhfZ4Tvbttm1y-82" value="" style="shape=cylinder3;whiteSpace=wrap;html=1;boundedLbl=1;backgroundOutline=1;size=15;rotation=90;" vertex="1" parent="d3hysCNAhfZ4Tvbttm1y-81">
          <mxGeometry x="10" y="-10" width="60" height="80" as="geometry" />
        </mxCell>
        <mxCell id="d3hysCNAhfZ4Tvbttm1y-83" value="Table1" style="text;html=1;align=center;verticalAlign=middle;whiteSpace=wrap;rounded=0;" vertex="1" parent="d3hysCNAhfZ4Tvbttm1y-81">
          <mxGeometry width="60" height="30" as="geometry" />
        </mxCell>
        <mxCell id="d3hysCNAhfZ4Tvbttm1y-84" value="Table2" style="text;html=1;align=center;verticalAlign=middle;whiteSpace=wrap;rounded=0;" vertex="1" parent="d3hysCNAhfZ4Tvbttm1y-81">
          <mxGeometry y="15" width="60" height="30" as="geometry" />
        </mxCell>
        <mxCell id="d3hysCNAhfZ4Tvbttm1y-85" value="Table3" style="text;html=1;align=center;verticalAlign=middle;whiteSpace=wrap;rounded=0;" vertex="1" parent="d3hysCNAhfZ4Tvbttm1y-81">
          <mxGeometry y="30" width="60" height="30" as="geometry" />
        </mxCell>
        <mxCell id="d3hysCNAhfZ4Tvbttm1y-86" value="" style="group" vertex="1" connectable="0" parent="1">
          <mxGeometry x="-310" y="830" width="80" height="60" as="geometry" />
        </mxCell>
        <mxCell id="d3hysCNAhfZ4Tvbttm1y-87" value="" style="shape=cylinder3;whiteSpace=wrap;html=1;boundedLbl=1;backgroundOutline=1;size=15;rotation=90;" vertex="1" parent="d3hysCNAhfZ4Tvbttm1y-86">
          <mxGeometry x="10" y="-10" width="60" height="80" as="geometry" />
        </mxCell>
        <mxCell id="d3hysCNAhfZ4Tvbttm1y-88" value="Table1" style="text;html=1;align=center;verticalAlign=middle;whiteSpace=wrap;rounded=0;" vertex="1" parent="d3hysCNAhfZ4Tvbttm1y-86">
          <mxGeometry width="60" height="30" as="geometry" />
        </mxCell>
        <mxCell id="d3hysCNAhfZ4Tvbttm1y-89" value="Table2" style="text;html=1;align=center;verticalAlign=middle;whiteSpace=wrap;rounded=0;" vertex="1" parent="d3hysCNAhfZ4Tvbttm1y-86">
          <mxGeometry y="15" width="60" height="30" as="geometry" />
        </mxCell>
        <mxCell id="d3hysCNAhfZ4Tvbttm1y-90" value="Table3" style="text;html=1;align=center;verticalAlign=middle;whiteSpace=wrap;rounded=0;" vertex="1" parent="d3hysCNAhfZ4Tvbttm1y-86">
          <mxGeometry y="30" width="60" height="30" as="geometry" />
        </mxCell>
        <mxCell id="d3hysCNAhfZ4Tvbttm1y-91" value="" style="group" vertex="1" connectable="0" parent="1">
          <mxGeometry x="-180" y="830" width="80" height="60" as="geometry" />
        </mxCell>
        <mxCell id="d3hysCNAhfZ4Tvbttm1y-92" value="" style="shape=cylinder3;whiteSpace=wrap;html=1;boundedLbl=1;backgroundOutline=1;size=15;rotation=90;" vertex="1" parent="d3hysCNAhfZ4Tvbttm1y-91">
          <mxGeometry x="10" y="-10" width="60" height="80" as="geometry" />
        </mxCell>
        <mxCell id="d3hysCNAhfZ4Tvbttm1y-93" value="Table1" style="text;html=1;align=center;verticalAlign=middle;whiteSpace=wrap;rounded=0;" vertex="1" parent="d3hysCNAhfZ4Tvbttm1y-91">
          <mxGeometry width="60" height="30" as="geometry" />
        </mxCell>
        <mxCell id="d3hysCNAhfZ4Tvbttm1y-94" value="Table2" style="text;html=1;align=center;verticalAlign=middle;whiteSpace=wrap;rounded=0;" vertex="1" parent="d3hysCNAhfZ4Tvbttm1y-91">
          <mxGeometry y="15" width="60" height="30" as="geometry" />
        </mxCell>
        <mxCell id="d3hysCNAhfZ4Tvbttm1y-95" value="Table3" style="text;html=1;align=center;verticalAlign=middle;whiteSpace=wrap;rounded=0;" vertex="1" parent="d3hysCNAhfZ4Tvbttm1y-91">
          <mxGeometry y="30" width="60" height="30" as="geometry" />
        </mxCell>
        <mxCell id="d3hysCNAhfZ4Tvbttm1y-96" value="" style="group" vertex="1" connectable="0" parent="1">
          <mxGeometry x="-40" y="830" width="80" height="60" as="geometry" />
        </mxCell>
        <mxCell id="d3hysCNAhfZ4Tvbttm1y-97" value="" style="shape=cylinder3;whiteSpace=wrap;html=1;boundedLbl=1;backgroundOutline=1;size=15;rotation=90;" vertex="1" parent="d3hysCNAhfZ4Tvbttm1y-96">
          <mxGeometry x="10" y="-10" width="60" height="80" as="geometry" />
        </mxCell>
        <mxCell id="d3hysCNAhfZ4Tvbttm1y-98" value="Table1" style="text;html=1;align=center;verticalAlign=middle;whiteSpace=wrap;rounded=0;" vertex="1" parent="d3hysCNAhfZ4Tvbttm1y-96">
          <mxGeometry width="60" height="30" as="geometry" />
        </mxCell>
        <mxCell id="d3hysCNAhfZ4Tvbttm1y-99" value="Table2" style="text;html=1;align=center;verticalAlign=middle;whiteSpace=wrap;rounded=0;" vertex="1" parent="d3hysCNAhfZ4Tvbttm1y-96">
          <mxGeometry y="15" width="60" height="30" as="geometry" />
        </mxCell>
        <mxCell id="d3hysCNAhfZ4Tvbttm1y-100" value="Table3" style="text;html=1;align=center;verticalAlign=middle;whiteSpace=wrap;rounded=0;" vertex="1" parent="d3hysCNAhfZ4Tvbttm1y-96">
          <mxGeometry y="30" width="60" height="30" as="geometry" />
        </mxCell>
        <mxCell id="d3hysCNAhfZ4Tvbttm1y-101" style="edgeStyle=orthogonalEdgeStyle;rounded=0;orthogonalLoop=1;jettySize=auto;html=1;entryX=0.5;entryY=0;entryDx=0;entryDy=0;" edge="1" parent="1" source="d3hysCNAhfZ4Tvbttm1y-24" target="d3hysCNAhfZ4Tvbttm1y-78">
          <mxGeometry relative="1" as="geometry" />
        </mxCell>
        <mxCell id="d3hysCNAhfZ4Tvbttm1y-102" style="edgeStyle=orthogonalEdgeStyle;rounded=0;orthogonalLoop=1;jettySize=auto;html=1;entryX=0.5;entryY=0;entryDx=0;entryDy=0;" edge="1" parent="1" source="d3hysCNAhfZ4Tvbttm1y-53" target="d3hysCNAhfZ4Tvbttm1y-83">
          <mxGeometry relative="1" as="geometry" />
        </mxCell>
        <mxCell id="d3hysCNAhfZ4Tvbttm1y-103" style="edgeStyle=orthogonalEdgeStyle;rounded=0;orthogonalLoop=1;jettySize=auto;html=1;entryX=0.5;entryY=0;entryDx=0;entryDy=0;" edge="1" parent="1" source="d3hysCNAhfZ4Tvbttm1y-58" target="d3hysCNAhfZ4Tvbttm1y-88">
          <mxGeometry relative="1" as="geometry" />
        </mxCell>
        <mxCell id="d3hysCNAhfZ4Tvbttm1y-104" style="edgeStyle=orthogonalEdgeStyle;rounded=0;orthogonalLoop=1;jettySize=auto;html=1;entryX=0.5;entryY=0;entryDx=0;entryDy=0;" edge="1" parent="1" source="d3hysCNAhfZ4Tvbttm1y-63" target="d3hysCNAhfZ4Tvbttm1y-93">
          <mxGeometry relative="1" as="geometry" />
        </mxCell>
        <mxCell id="d3hysCNAhfZ4Tvbttm1y-105" style="edgeStyle=orthogonalEdgeStyle;rounded=0;orthogonalLoop=1;jettySize=auto;html=1;entryX=0.5;entryY=0;entryDx=0;entryDy=0;" edge="1" parent="1" source="d3hysCNAhfZ4Tvbttm1y-68" target="d3hysCNAhfZ4Tvbttm1y-98">
          <mxGeometry relative="1" as="geometry" />
        </mxCell>
        <mxCell id="d3hysCNAhfZ4Tvbttm1y-106" value="ClickHouse" style="text;html=1;align=center;verticalAlign=middle;whiteSpace=wrap;rounded=0;" vertex="1" parent="1">
          <mxGeometry x="-640" y="810" width="60" height="30" as="geometry" />
        </mxCell>
        <mxCell id="d3hysCNAhfZ4Tvbttm1y-107" value="paams-business-view" style="rounded=1;whiteSpace=wrap;html=1;" vertex="1" parent="1">
          <mxGeometry x="-355" y="1000" width="120" height="60" as="geometry" />
        </mxCell>
        <mxCell id="d3hysCNAhfZ4Tvbttm1y-108" value="" style="endArrow=classic;html=1;rounded=0;entryX=0.5;entryY=1;entryDx=0;entryDy=0;" edge="1" parent="1" target="d3hysCNAhfZ4Tvbttm1y-80">
          <mxGeometry width="50" height="50" relative="1" as="geometry">
            <mxPoint x="-300" y="1000" as="sourcePoint" />
            <mxPoint x="-250" y="950" as="targetPoint" />
          </mxGeometry>
        </mxCell>
        <mxCell id="d3hysCNAhfZ4Tvbttm1y-109" value="" style="endArrow=classic;html=1;rounded=0;entryX=0.5;entryY=1;entryDx=0;entryDy=0;" edge="1" parent="1" target="d3hysCNAhfZ4Tvbttm1y-85">
          <mxGeometry width="50" height="50" relative="1" as="geometry">
            <mxPoint x="-300" y="1000" as="sourcePoint" />
            <mxPoint x="-250" y="950" as="targetPoint" />
          </mxGeometry>
        </mxCell>
        <mxCell id="d3hysCNAhfZ4Tvbttm1y-110" value="" style="endArrow=classic;html=1;rounded=0;entryX=0.5;entryY=1;entryDx=0;entryDy=0;" edge="1" parent="1" target="d3hysCNAhfZ4Tvbttm1y-90">
          <mxGeometry width="50" height="50" relative="1" as="geometry">
            <mxPoint x="-300" y="1000" as="sourcePoint" />
            <mxPoint x="-250" y="950" as="targetPoint" />
          </mxGeometry>
        </mxCell>
        <mxCell id="d3hysCNAhfZ4Tvbttm1y-111" value="" style="endArrow=classic;html=1;rounded=0;entryX=0.5;entryY=1;entryDx=0;entryDy=0;" edge="1" parent="1" target="d3hysCNAhfZ4Tvbttm1y-95">
          <mxGeometry width="50" height="50" relative="1" as="geometry">
            <mxPoint x="-300" y="1000" as="sourcePoint" />
            <mxPoint x="-210" y="950" as="targetPoint" />
          </mxGeometry>
        </mxCell>
        <mxCell id="d3hysCNAhfZ4Tvbttm1y-112" value="" style="endArrow=classic;html=1;rounded=0;entryX=0.5;entryY=1;entryDx=0;entryDy=0;" edge="1" parent="1" target="d3hysCNAhfZ4Tvbttm1y-100">
          <mxGeometry width="50" height="50" relative="1" as="geometry">
            <mxPoint x="-300" y="1000" as="sourcePoint" />
            <mxPoint x="-50" y="940" as="targetPoint" />
          </mxGeometry>
        </mxCell>
        <mxCell id="d3hysCNAhfZ4Tvbttm1y-113" value="select" style="text;html=1;align=center;verticalAlign=middle;whiteSpace=wrap;rounded=0;" vertex="1" parent="1">
          <mxGeometry x="-330" y="950" width="60" height="30" as="geometry" />
        </mxCell>
        <mxCell id="d3hysCNAhfZ4Tvbttm1y-114" value="Flink" style="text;html=1;align=center;verticalAlign=middle;whiteSpace=wrap;rounded=0;" vertex="1" parent="1">
          <mxGeometry x="-670" y="370" width="60" height="30" as="geometry" />
        </mxCell>
        <mxCell id="d3hysCNAhfZ4Tvbttm1y-115" value="Kafka" style="text;html=1;align=center;verticalAlign=middle;whiteSpace=wrap;rounded=0;" vertex="1" parent="1">
          <mxGeometry x="-670" y="640" width="60" height="30" as="geometry" />
        </mxCell>
        <mxCell id="d3hysCNAhfZ4Tvbttm1y-118" value="Job1：链路统计" style="text;html=1;align=center;verticalAlign=middle;whiteSpace=wrap;rounded=0;fontSize=20;" vertex="1" parent="1">
          <mxGeometry x="-670" y="60" width="183" height="20" as="geometry" />
        </mxCell>
        <mxCell id="d3hysCNAhfZ4Tvbttm1y-119" value="Job2：服务调用统计" style="text;html=1;align=center;verticalAlign=middle;whiteSpace=wrap;rounded=0;fontSize=18;" vertex="1" parent="1">
          <mxGeometry x="180" y="60" width="193" height="20" as="geometry" />
        </mxCell>
      </root>
    </mxGraphModel>
  </diagram>
</mxfile>
